<svg width="20" height="20" viewBox="0 0 20 20" fill="none" xmlns="http://www.w3.org/2000/svg"><g clip-path="url(#clip0_289_17501)"><path d="M17.7347 7.1539H17.2546V4.83648C17.2546 4.82193 17.2522 4.80748 17.2503 4.79271C17.2496 4.70079 17.2203 4.61033 17.1573 4.53883L13.3012 0.134126C13.3001 0.132886 13.2989 0.132521 13.2981 0.13139C13.2751 0.105601 13.2483 0.0842618 13.22 0.0658774C13.2116 0.0601505 13.2031 0.055445 13.1943 0.0505936C13.1698 0.0372795 13.1438 0.026081 13.1169 0.0180196C13.1097 0.0161228 13.1032 0.0131317 13.0959 0.011162C13.0667 0.00430428 13.0365 0 13.0059 0H3.52904C3.09628 0 2.74475 0.351966 2.74475 0.784328V7.15368H2.2646C1.64551 7.15368 1.14355 7.65546 1.14355 8.27462V14.104C1.14355 14.7229 1.64551 15.2252 2.2646 15.2252H2.74475V19.2157C2.74475 19.6481 3.09628 20 3.52904 20H16.4702C16.9026 20 17.2546 19.6481 17.2546 19.2157V15.2252H17.7347C18.3536 15.2252 18.8556 14.7231 18.8556 14.1042V8.27484C18.8557 7.6555 18.3536 7.1539 17.7347 7.1539ZM3.52904 0.784328H12.6137V4.79701C12.6137 5.01369 12.7895 5.18918 13.0059 5.18918H16.4702V7.15387H3.52904V0.784328ZM9.43324 11.4239C8.46003 11.085 7.82595 10.5465 7.82595 9.69525C7.82595 8.69564 8.65986 7.93093 10.0413 7.93093C10.7018 7.93093 11.1884 8.06995 11.5357 8.22665L11.2406 9.29543C11.0061 9.1821 10.589 9.01704 10.0153 9.01704C9.44203 9.01704 9.164 9.27781 9.164 9.58188C9.164 9.95566 9.49401 10.1206 10.2503 10.4074C11.2841 10.7897 11.7707 11.3281 11.7707 12.1537C11.7707 13.1353 11.0148 13.9698 9.40727 13.9698C8.73835 13.9698 8.07772 13.7956 7.74768 13.6134L8.01688 12.5185C8.37333 12.7014 8.92059 12.8835 9.48559 12.8835C10.0937 12.8835 10.4153 12.6315 10.4153 12.2489C10.4151 11.8838 10.1369 11.6755 9.43324 11.4239ZM2.53384 11.0413C2.53384 9.04304 3.95914 7.93093 5.73119 7.93093C6.41776 7.93093 6.93905 8.06995 7.17382 8.19171L6.90418 9.24283C6.63498 9.13033 6.26102 9.02619 5.79196 9.02619C4.74062 9.02619 3.92412 9.65998 3.92412 10.9631C3.92412 12.1361 4.61905 12.8745 5.80108 12.8745C6.2004 12.8745 6.64359 12.7877 6.90418 12.6834L7.10419 13.7174C6.86081 13.8392 6.31358 13.9698 5.60104 13.9698C3.57657 13.9698 2.53384 12.7095 2.53384 11.0413ZM16.4702 19.0031H3.52904V15.2252H16.4702V19.0031ZM15.5942 13.8825H14.0476L12.1709 8.02665H13.6222L14.3344 10.5032C14.5343 11.198 14.7167 11.8669 14.856 12.5969H14.8819C15.0295 11.893 15.2118 11.1979 15.4117 10.5289L16.159 8.02665H17.567L15.5942 13.8825Z" fill="white"/></g><defs><clipPath id="clip0_289_17501"><rect width="20" height="20" fill="white"/></clipPath></defs></svg>
