<svg id="Layer_1" data-name="Layer 1" xmlns="http://www.w3.org/2000/svg" viewBox="0 0 1500 1500"><defs><style>.cls-1,.cls-6{fill:#fff;}.cls-1{stroke:#ccc;stroke-miterlimit:10;stroke-width:3px;}.cls-2{fill:#e39491;}.cls-3{fill:#ad4453;}.cls-4{fill:#cf6a79;}.cls-5{fill:#ba5463;}.cls-7{fill:#e09bb3;}.cls-8{fill:#e8e5c4;}.cls-9{fill:#ffe0e0;}.cls-10{fill:#545681;}.cls-11{fill:#333669;}.cls-12{fill:#cf7e9a;}.cls-13{fill:#dcddd2;}.cls-14{fill:#f6f5e9;}.cls-15{fill:#e1d5b9;}</style></defs><title>icons</title><path class="cls-1" d="M194.32,790.72a220.59,220.59,0,0,0,19.24,37.77,171.76,171.76,0,0,0,43.2,103.67c17.14,112.2,58.75,220.64,59.18,221.7l.78,2c2.95,7.53,8.43,21.56,18.8,34.86,17.63,22.62,42.67,35.07,70.52,35.07a89.58,89.58,0,0,0,14.77-1.23q2.64-.43,5.22-1c1.48.07,3,.11,4.47.11,2.66,0,5.33-.14,8-.39a76.61,76.61,0,0,0,9.95,21.42,74.58,74.58,0,0,0,123.27,0,77.45,77.45,0,0,0,11.59-28.21,84.31,84.31,0,0,0,6.12,13.46,82.15,82.15,0,0,0,42.88,36.71,84.89,84.89,0,0,0,35.08,14.28,87.26,87.26,0,0,0,14.25,1.18c1.49,0,3,0,4.46-.11,1.72.4,3.47.75,5.23,1a89.58,89.58,0,0,0,14.77,1.23,86.93,86.93,0,0,0,45.5-12.58A97.83,97.83,0,0,0,808,1291.23l2.38,0a114.16,114.16,0,0,0,71.93-24.86,130.24,130.24,0,0,0,30.61-34.91c.08.73.16,1.45.25,2.18,1,25.45,13.19,45.95,20.91,56.5,20.06,27.45,49.47,43.52,80.64,44.1l1.91,0h.25c24.22,0,47.91-7.66,68.5-22.15,26.56-18.68,47.05-45.46,66.44-86.76l1.06-2.25c18.64-39.6,34.58-78.36,24.94-117.22a90.48,90.48,0,0,0-46.37-58.84c-1.74-1.31-3.5-2.57-5.25-3.77-5.26-18-11.24-40-14.81-60a75.78,75.78,0,0,0,.59-20.86c0-.11-1.15-10.51-2.48-24a145.14,145.14,0,0,0-2.18-31.49l150.78,32.68c.78.17,1.57.3,2.36.44l.56.1c.57.1,1.14.18,1.72.26l1.49.2,1.48.15c.63.06,1.25.11,1.88.15l1.22.08c1,0,1.92.07,2.88.08h.23c1.22,0,2.44,0,3.65-.11l1-.06c1-.08,2.09-.17,3.13-.3.26,0,.52,0,.77-.09,1-.13,2-.3,3.07-.48l1.48-.28,2-.45c.4-.09.8-.16,1.19-.26l117.09-30.1A65.47,65.47,0,0,0,1454.59,848l2.35-53.53c0-.16,0-.31,0-.47,0-1.1.06-2.2,0-3.3s-.08-2.41-.17-3.61c0-.21,0-.41,0-.62-.08-1.06-.19-2.11-.32-3.16,0-.13,0-.26,0-.38a66.51,66.51,0,0,0-1.35-7.08l-.15-.56c-.24-.92-.5-1.84-.77-2.75l-.27-.86c-.28-.87-.58-1.74-.89-2.6s-.59-1.53-.9-2.29c-.12-.3-.24-.6-.37-.9a65.25,65.25,0,0,0-33.78-34.44l-.63-.28c-.57-.24-1.14-.49-1.72-.72l-1.33-.51-1.13-.42-1.82-.61-.75-.24c-.68-.21-1.37-.41-2.06-.6l-.64-.17-2.07-.51-.76-.17-.8-.18-151.16-30.62a193.72,193.72,0,0,0-8.12-70.73,206.76,206.76,0,0,0-12.51-31.54c1.57-28.3-.57-71.59-19.9-116.3-21.49-49.67-56.65-80.5-80.94-97-14.77-25.8-42.84-64.79-89.22-93.94-51.52-32.39-97.1-41.7-128.83-43.21-5.86-4.08-12.55-8.34-20.06-12.54-48.63-27.2-97.05-32.91-129.11-32.91-35.06,0-68.82,5.78-98.76,16.83-6.9-.54-13.77-.81-20.53-.81A271.51,271.51,0,0,0,526.22,241.7a282.2,282.2,0,0,0-44.91,27.07c-44.41,8.88-84.57,30.8-117.09,64.09a242.73,242.73,0,0,0-27,33c-52,27.14-78.34,68.25-91.46,99.64a211.55,211.55,0,0,0-8.47,24.41l-.91-.19a66.41,66.41,0,0,0-12.88-1.27A65.36,65.36,0,0,0,209.14,490L91,516.33l-.22,0-1.89.47-.89.23c-.72.19-1.44.41-2.15.63l-.53.16c-.85.27-1.68.55-2.51.86l-.08,0a65.58,65.58,0,0,0-39.18,39.18c-.18.49-.36,1-.53,1.46s-.29.88-.43,1.32c-.27.82-.51,1.65-.74,2.48-.06.21-.13.42-.18.63a66.59,66.59,0,0,0-1.49,7.2l0,.21a64.46,64.46,0,0,0-.66,7.51v.06c0,.8,0,1.59,0,2.39,0,.34,0,.67,0,1s0,.58,0,.88c0,.91.09,1.82.17,2.73,0,.22,0,.45,0,.67L44.36,638A65.59,65.59,0,0,0,96,696.43l84.64,18.34A195,195,0,0,0,194.32,790.72Z"/><polygon class="cls-2" points="223.5 554.27 105.35 580.61 598.9 681.51 717.21 654.28 223.5 554.27"/><path class="cls-3" d="M598.9,684a2.94,2.94,0,0,1-.51,0L104.84,583.09a2.53,2.53,0,0,1,0-5L223,551.79a2.7,2.7,0,0,1,1.06,0l493.71,100a2.53,2.53,0,0,1,.06,5L599.47,684A2.76,2.76,0,0,1,598.9,684ZM117.47,580.5l481.4,98.41,106.37-24.48L223.53,556.86Z"/><polygon class="cls-4" points="105.35 580.61 109.95 632.07 597.96 737.85 598.9 681.51 105.35 580.61"/><path class="cls-3" d="M598,740.38a2.48,2.48,0,0,1-.54-.06l-488-105.78a2.53,2.53,0,0,1-2-2.25l-4.6-51.45a2.51,2.51,0,0,1,.83-2.12,2.55,2.55,0,0,1,2.2-.59L599.41,679a2.54,2.54,0,0,1,2,2.53l-.94,56.34a2.52,2.52,0,0,1-1,1.94A2.55,2.55,0,0,1,598,740.38ZM112.31,630,595.48,734.72l.85-51.15-488.16-99.8Z"/><polygon class="cls-5" points="597.96 737.85 714.87 707.8 717.21 654.28 598.9 681.51 597.96 737.85"/><path class="cls-3" d="M598,740.38a2.52,2.52,0,0,1-2.53-2.58l.94-56.34a2.53,2.53,0,0,1,2-2.42l118.32-27.23a2.52,2.52,0,0,1,3.09,2.58l-2.34,53.52a2.54,2.54,0,0,1-1.9,2.34l-116.91,30A2.72,2.72,0,0,1,598,740.38Zm3.44-56.85-.85,51,111.87-28.76,2.12-48.32Z"/><path class="cls-6" d="M790.54,1201.54c7.33,8,16.39,8.2,27.7,1.11,26.86-16.85,28.92-54.15,42.21-70.17,8.43-10.17,32.75-48.92,23.78-62.73-4.5-6.92-24.34-16.41-28.81-17.17-12.66-2.14-55,29.63-53.74,46,1.79,23.08-23.44,60.1-19.69,83.53C782.83,1187.41,785.1,1195.58,790.54,1201.54Z"/><path class="cls-7" d="M803.47,1210.31h0c-5.55,0-10.53-2.37-14.81-7.06-6.18-6.79-8.4-15.89-9.17-20.7-2.07-12.91,4.07-29.35,10-45.25,5.14-13.78,10.46-28,9.65-38.48-.56-7.25,5.75-15.7,11.13-21.52,14.92-16.12,35.07-27.36,43.82-27.36a10.67,10.67,0,0,1,1.74.14c4.83.82,25.46,10.52,30.51,18.29,10.92,16.8-19.05,59.81-24,65.72-4.68,5.65-8,14.5-11.61,23.88-6.39,16.78-13.62,35.8-31.2,46.82C813.66,1208.51,808.39,1210.31,803.47,1210.31ZM854.1,1055c-8.22,0-28.08,12.74-40.1,25.73-6.55,7.07-10.12,13.52-9.79,17.69.89,11.57-4.38,25.69-10,40.65-5.71,15.28-11.61,31.08-9.75,42.67.68,4.26,2.62,12.27,7.92,18.09,3.32,3.64,6.93,5.41,11.06,5.41,3.88,0,8.4-1.6,13.43-4.75,16.14-10.12,23.05-28.3,29.15-44.33,3.72-9.78,7.23-19,12.45-25.31,10.16-12.25,31-48.35,23.61-59.73-4-6.17-23.26-15.4-27.12-16.05A4.8,4.8,0,0,0,854.1,1055Z"/><path class="cls-8" d="M866.11,1148.58c5.87-14.85,35.34-50.86,31.23-67.41a15.14,15.14,0,0,0-13.11-11.42c3.76,14.89-2.09,27.1-27.64,66.84-8.74,13.6-10.9,28.34-17,40.42-2.32,4.58-20,35.37-41.4,29.38-9.54-2.67-13.56-16.16-15.6-21.1-2.16,7.26,10.68,29.67,26.85,30a38.6,38.6,0,0,0,25.5-8.31C851.5,1193.76,855.57,1175.24,866.11,1148.58Z"/><path class="cls-7" d="M810.35,1217.8h-1c-8-.15-16.34-5.26-22.74-14-4.32-5.91-8-14.14-6.48-19.21a2.52,2.52,0,0,1,4.76-.24c.25.6.53,1.32.84,2.13,2.06,5.41,5.91,15.48,13.1,17.5a18.39,18.39,0,0,0,4.87.67c18.53,0,33.44-28.47,33.58-28.76a121.38,121.38,0,0,0,6.12-15.63c2.8-8.23,5.7-16.74,11-25,26.09-40.59,30.69-51.5,27.31-64.85a2.53,2.53,0,0,1,.57-2.3,2.48,2.48,0,0,1,2.22-.83,17.69,17.69,0,0,1,15.24,13.33c3,12.17-9.33,32-20.22,49.44-4.78,7.64-9.28,14.86-11.12,19.5-2,5.12-3.78,9.88-5.49,14.49-7,18.91-12.53,33.85-26.45,44.94A40.93,40.93,0,0,1,810.35,1217.8Zm-11-8.52a19,19,0,0,0,10.1,3.44h.87a35.5,35.5,0,0,0,23-7.76c12.82-10.2,17.87-23.85,24.86-42.73,1.72-4.63,3.49-9.42,5.53-14.59s6.42-12.14,11.53-20.33c9.33-15,22.11-35.44,19.61-45.54a12.06,12.06,0,0,0-7.4-8.55c2,14.29-5.37,28.33-28.77,64.73-5,7.76-7.78,16-10.49,23.92a124.81,124.81,0,0,1-6.38,16.27c-.16.32-16.19,31.55-38.11,31.55A22.92,22.92,0,0,1,799.38,1209.28Z"/><path class="cls-6" d="M796.16,1166c-.14,1.21-.11,2.61.79,3.43s2.56.71,3.77.16c4.94-2.22,17.14-24.19,11.18-27C803.27,1138.52,796.76,1160.79,796.16,1166Z"/><path class="cls-7" d="M798.72,1172.54h0a5,5,0,0,1-3.48-1.29c-1.35-1.24-1.88-3.12-1.6-5.59a59.78,59.78,0,0,1,4.4-14.46c3.45-7.74,7.41-11.66,11.77-11.66a7.43,7.43,0,0,1,3.16.72c1.16.54,3.09,2,3.07,5.75-.06,8-9.28,23.59-14.28,25.84A7.46,7.46,0,0,1,798.72,1172.54Zm0-5.07h0a2.55,2.55,0,0,0,1-.24c2.22-1,9-10.91,10.89-18.58.63-2.54.36-3.64.22-3.83a2.45,2.45,0,0,0-1-.22c-1.59,0-4.3,2.28-7.15,8.67a56,56,0,0,0-4,13A3.46,3.46,0,0,0,798.68,1167.47Z"/><path class="cls-6" d="M866,1068.29c-.12-.57-.26-1.13-.41-1.7-1.62-6.3-5.33-12.84-11.62-14.51-5-1.32-10.14.75-14.69,3.13a98.86,98.86,0,0,0-19.63,13.93c-19.35,17.12-23.38,30.84-14.72,40.22a28.33,28.33,0,0,0,4.85,4.13,11,11,0,0,1,3.36,5.78c.67,3.53-.72,6.8-2.24,9.92a40.66,40.66,0,0,1,8.18.07c-1-2-.1-5.31.74-7.31a9.65,9.65,0,0,1,5.94-5.46A21.77,21.77,0,0,1,832,1116c9.9,0,17.53-4.16,24.25-11.19C865.72,1094.91,868.88,1081.53,866,1068.29Z"/><path class="cls-7" d="M819.07,1131.79h-.28a37.81,37.81,0,0,0-7.67-.06,2.54,2.54,0,0,1-2.51-3.64c1.37-2.81,2.56-5.56,2-8.34a8.38,8.38,0,0,0-2.52-4.3,30.94,30.94,0,0,1-5.07-4.36,17.77,17.77,0,0,1-5-13.35c.45-9,7.14-19.21,19.88-30.48A100.22,100.22,0,0,1,838.1,1053c3.4-1.79,7.91-3.83,12.63-3.83a15,15,0,0,1,3.88.49c6.29,1.67,11.18,7.62,13.43,16.33.15.6.29,1.19.42,1.79,3.16,14.47-.62,28.61-10.38,38.78-7.82,8.17-16.11,12-26.08,12h-1.39a14.83,14.83,0,0,0-4.13.41,7.11,7.11,0,0,0-4.33,4c-.83,2-1.18,4-.86,5a2.59,2.59,0,0,1,.34,1.27,2.54,2.54,0,0,1-2.54,2.53Zm-4.25-5.3,1.31,0a17.33,17.33,0,0,1,1.35-5.54,12.18,12.18,0,0,1,7.54-6.91,19.31,19.31,0,0,1,5.59-.63H832c8.5,0,15.62-3.31,22.43-10.41,8.56-8.94,11.88-21.41,9.08-34.2-.11-.54-.24-1.07-.38-1.61-1.75-6.78-5.42-11.52-9.82-12.69a9.86,9.86,0,0,0-2.58-.33c-3.61,0-7.39,1.74-10.28,3.26A95.81,95.81,0,0,0,821.31,1071c-11.51,10.19-17.8,19.51-18.17,26.94a12.67,12.67,0,0,0,3.64,9.66,25.66,25.66,0,0,0,4.42,3.76,2,2,0,0,1,.39.33,13.52,13.52,0,0,1,4,7.07A14.58,14.58,0,0,1,814.82,1126.49Z"/><path class="cls-6" d="M851,1146.68a.78.78,0,0,1-.79-.1c-9.55-7.77-17.71-12.55-26.44-15.52a30,30,0,0,0-16.13-.43c-7.65,1.76-12.46,4.25-14.69,7.62a.76.76,0,0,1-1,.21.75.75,0,0,1-.21-1c2.46-3.7,7.56-6.4,15.61-8.25a31.47,31.47,0,0,1,17,.47c8.9,3,17.2,7.89,26.9,15.77a.76.76,0,0,1,.11,1.06A.9.9,0,0,1,851,1146.68Z"/><path class="cls-7" d="M850.65,1149.28a3.28,3.28,0,0,1-2.07-.74c-9.31-7.56-17.22-12.22-25.65-15.08a27.58,27.58,0,0,0-14.75-.36c-6.89,1.59-11.32,3.79-13.15,6.55a3.38,3.38,0,0,1-4.56.92,3.31,3.31,0,0,1-1.4-2.09,3.27,3.27,0,0,1,.49-2.47c2.84-4.26,8.45-7.31,17.15-9.31a34.15,34.15,0,0,1,18.33.54c9.2,3.13,17.74,8.13,27.68,16.21a3.26,3.26,0,0,1,.48,4.61,3.28,3.28,0,0,1-1.17.92A3.33,3.33,0,0,1,850.65,1149.28Z"/><path class="cls-9" d="M832.43,1108c25.91-8,30.89-18.81,25.68-47.25-2.27-12.39-38-110.29-31.76-162.06s-40.82-81.36-59.6-20.22,23.72,181.94,27.08,193.49C799.86,1092.74,817.5,1112.64,832.43,1108Z"/><path class="cls-7" d="M827.94,1111.23h0c-15.65,0-31.16-20-36.54-38.54-.29-1-.88-2.83-1.7-5.37-19.5-60.68-39.73-142.83-25.37-189.56,7-22.88,19.06-36,33-36,7,0,14,3.49,19.6,9.82,9.74,11,14.21,28.73,11.94,47.44-4.91,40.49,16.37,110,26.59,143.4,2.8,9.15,4.65,15.19,5.14,17.91,5.54,30.2-.87,41.92-27.42,50.12A17.78,17.78,0,0,1,827.94,1111.23ZM797.33,846.82c-11.57,0-21.83,11.82-28.16,32.43-14,45.47,6.08,126.53,25.35,186.52.84,2.61,1.44,4.49,1.74,5.51,5.5,18.91,20,34.89,31.68,34.89h0a12.76,12.76,0,0,0,3.75-.56c24.1-7.45,29-16.57,23.93-44.37-.44-2.43-2.36-8.68-5-17.33-10.33-33.74-31.82-104-26.78-145.5,2.09-17.29-1.9-33.55-10.7-43.47C808.5,849.71,802.89,846.82,797.33,846.82Z"/><path class="cls-10" d="M774.54,677.49s-22.81,68.56-26.22,132.1c-3.5,65.11,10.12,124.6,10.12,124.6s11.36,15.88,30.62,12.18,40.66-18.74,40.66-18.74-7.31-66.59-7-87.06c.73-52.49,5-93.51,23.06-128.84C865.55,673.07,774.54,677.49,774.54,677.49Z"/><path class="cls-11" d="M783.29,949.46h0c-16.85,0-26.51-13.23-26.91-13.8a2.35,2.35,0,0,1-.41-.91c-.14-.6-13.66-60.58-10.18-125.3,3.39-63.15,26.12-132.07,26.34-132.76a2.54,2.54,0,0,1,2.29-1.73c.13,0,3.27-.15,8.29-.15,20.51,0,56.36,2.34,66,18,3.46,5.67,3.24,12.41-.66,20-17.93,35-22.07,76.38-22.79,127.73-.27,20.08,6.95,86.08,7,86.75a2.54,2.54,0,0,1-1.06,2.35c-.89.62-22.06,15.38-41.64,19.15A33.31,33.31,0,0,1,783.29,949.46Zm-22.5-16.37c1.6,2,9.77,11.31,22.5,11.31h0a28.32,28.32,0,0,0,5.3-.52c15.94-3.07,33.69-14.32,38.45-17.49-1.11-10.28-7.14-66.94-6.88-85.85.72-52.06,5-94.08,23.34-130,3.09-6,3.36-11,.84-15.09-8.86-14.49-49.41-15.62-61.63-15.62-2.73,0-4.91,0-6.31.09-3.46,10.86-22.49,72.75-25.55,129.76C747.59,870.47,759.46,927,760.79,933.09Z"/><path class="cls-9" d="M400.58,639c-48.39-11.17-82.4,124.88-73.95,236.62s55.64,239.45,59.86,250,9.16,26.06,21.83,23.95c7.68-1.28,4.93-21.13,4.93-21.13s6.34,21.13,19,19,5.63-21.83,5.63-21.83,1.41,13.38,12.68,12,7-15.49,1.41-28.17-44.51-136.73-50-218.31C392.83,755.21,464.66,653.8,400.58,639Z"/><path class="cls-12" d="M406,1152.31c-11.83,0-17.08-13.42-20.91-23.22l-1-2.51c-.51-1.26-51.2-133.92-60-250.76-6.86-90.63,13.65-192.49,45.71-227.07,9.79-10.56,20.48-14.71,31.33-12.21,39,9,30.67,48.62,19.1,103.44-8.75,41.46-19.64,93.06-15.74,151,5.58,82.78,45.18,207.08,49.79,217.46,6,13.45,7.35,21.75,4.45,26.9-1.55,2.73-4.19,4.35-7.86,4.81a15.87,15.87,0,0,1-1.93.12h0a12.11,12.11,0,0,1-6.65-1.89,14.34,14.34,0,0,1-2.26,7.14,10.67,10.67,0,0,1-7.36,4.47,13.59,13.59,0,0,1-2.19.19c-6.41,0-11.17-4.73-14.4-9.7-.57,5.48-2.42,10.8-7.36,11.62A15.63,15.63,0,0,1,406,1152.31ZM395,640.9c-7.3,0-14.52,3.8-21.47,11.29-15.09,16.27-28,48.75-36.44,91.44a504.32,504.32,0,0,0-7.94,131.81c8.78,116.11,59.18,248,59.68,249.26.33.82.67,1.67,1,2.54,3.48,8.91,7.82,20,16.19,20a12.22,12.22,0,0,0,1.87-.16c3.37-.56,3.82-11.17,2.84-18.28a2.53,2.53,0,0,1,4.93-1.08c1.46,4.83,7,17.36,14.82,17.36a8.88,8.88,0,0,0,1.35-.11,5.73,5.73,0,0,0,4-2.35c1.57-2.28,1.88-6.37.86-11.51a22.52,22.52,0,0,1-1.35-5.21,2.54,2.54,0,0,1,4.91-1.12,40.46,40.46,0,0,1,1.31,4.85c1.77,4.14,4.64,5.95,8.67,5.46,2.68-.34,3.61-1.46,4.07-2.27,2-3.47.39-11-4.67-22.36-6.55-14.74-44.82-139.12-50.21-219.17-3.95-58.62,7-110.6,15.84-152.37,11.78-55.85,18.9-89.57-15.29-97.45A22,22,0,0,0,395,640.9Z"/><path class="cls-9" d="M524.45,948.41c-28.17,14.08-121.13,16-158.69-32.86,0,0-84.51-24.42-76.06-111.75,0,0-59.15-62.91-19.72-138,0,0-21.59-80.75,35.69-124.88,0,0-.94-84.51,84.5-115.5,0,0,34.75-77,123-84.51,0,0,73.25-72.3,182.17-44.13S524.45,948.41,524.45,948.41Z"/><path class="cls-12" d="M473.4,959.61c-17.95,0-78.63-3-109.15-41.88a127.63,127.63,0,0,1-41.33-23.38c-18.62-15.78-39.86-44.13-35.84-89.67a143.1,143.1,0,0,1-24.38-40.8c-9.13-23.24-15.68-59.11,4.59-98.42a159.18,159.18,0,0,1-3.47-45.76c2.32-33.9,15.91-61.56,39.33-80.06a133.18,133.18,0,0,1,10.39-45.86c9.66-23.11,30.46-54,74.79-70.41,2.06-4.24,10.92-21.25,28.44-39.19,18.17-18.61,49.43-41.58,95.32-45.75,6.4-5.93,57.26-50.73,133-50.73a203.83,203.83,0,0,1,50.9,6.59c8.8,2.28,15.54,8.19,20,17.58,20.87,43.43-4.69,164-76,358.38-52.94,144.38-112.71,277.87-113.31,279.2a2.56,2.56,0,0,1-1.18,1.23C514.39,956.27,494.88,959.61,473.4,959.61ZM645.08,292.76c-78.63,0-129.61,49.42-130.12,49.92a2.49,2.49,0,0,1-1.56.72c-85.79,7.3-120.57,82.27-120.92,83a2.53,2.53,0,0,1-1.44,1.34c-34.67,12.57-59.15,35.38-72.75,67.78-10.18,24.25-10.09,45.1-10.09,45.31a2.52,2.52,0,0,1-1,2c-23.15,17.84-36,43.8-38.34,77.16a154.18,154.18,0,0,0,3.56,45.07,2.58,2.58,0,0,1-.2,1.83c-16,30.47-17.62,62.46-4.82,95.08a137.48,137.48,0,0,0,24.14,40,2.52,2.52,0,0,1,.67,2c-3.42,35.34,8,64.42,34,86.44a122.89,122.89,0,0,0,40.26,22.62,2.53,2.53,0,0,1,1.31.89c28.94,37.63,88.17,40.55,105.63,40.55,19.91,0,38.58-3.06,49.12-8,10.7-24,236.55-533.4,189-632.47-3.89-8.09-9.37-12.95-16.76-14.86A198.35,198.35,0,0,0,645.08,292.76Z"/><path class="cls-2" d="M480.32,939.49c-8.82,49.85-8.45,87.33,24.41,86.39,20.07-.58,5.64-86.39,5.64-86.39Z"/><path class="cls-4" d="M503.54,1028.43h0c-9.31,0-16.6-3.07-21.67-9.12-10.42-12.43-11.67-37.18-4.05-80.26a2.54,2.54,0,0,1,2.5-2.09h30.05a2.52,2.52,0,0,1,2.49,2.11c1.21,7.18,11.44,70.56-1,85.69a9.35,9.35,0,0,1-7.06,3.65ZM482.45,942c-4.77,27.5-8.41,60.07,3.3,74,4.13,4.92,9.94,7.31,17.79,7.31h1.12a4.3,4.3,0,0,0,3.29-1.8c9-10.91,3.51-59.19.26-79.53Z"/><path class="cls-7" d="M349.8,675.82a2.51,2.51,0,0,1-1.21-.31c-24-13-55.75-11.11-78.18-7.24a2.53,2.53,0,0,1-.86-5c23.22-4,56.19-5.91,81.45,7.78a2.53,2.53,0,0,1-1.2,4.76Z"/><path class="cls-7" d="M372.34,568.77a3,3,0,0,1-.66-.08c-11.77-3.14-20.5-9.05-28.2-14.27-11.26-7.62-21-14.22-37.33-11a2.53,2.53,0,1,1-1-5c18.41-3.56,29.45,3.91,41.14,11.83,7.73,5.23,15.72,10.64,26.67,13.56a2.53,2.53,0,0,1-.65,5Z"/><path class="cls-7" d="M314.26,809.76c-8.81,0-17.62-1-25.36-3.55a2.53,2.53,0,0,1,1.6-4.81c24,8,61.77-.73,70.48-4.6a2.53,2.53,0,1,1,2,4.62C357.55,803.86,335.92,809.76,314.26,809.76Z"/><path class="cls-4" d="M496.28,950.29c-5.16,23-3.29,47.89-.94,59.62Z"/><path class="cls-4" d="M495.34,1012.45a2.54,2.54,0,0,1-2.48-2c-2.22-11.08-4.51-36.34.95-60.68a2.53,2.53,0,0,1,4.94,1.11c-5.29,23.56-2.92,48.62-.92,58.58a2.54,2.54,0,0,1-2,3A2.92,2.92,0,0,1,495.34,1012.45Z"/><path class="cls-12" d="M437.12,448.58a2.56,2.56,0,0,1-1.79-.74,68.19,68.19,0,0,0-45.27-19.92,2.54,2.54,0,0,1-2.42-2.64,2.57,2.57,0,0,1,2.64-2.42,73.24,73.24,0,0,1,48.64,21.4,2.53,2.53,0,0,1-1.8,4.32Z"/><path class="cls-9" d="M784.4,773.32s-34.92,165.54-197.51,187.3C438,980.54,405.67,890.19,405.67,890.19s-39.44-22.53-60.1-70.42c-22.23-51.54-1.41-89.21-1.41-89.21s-22.06-46-15.49-93c9-64.59,43.66-87.32,43.66-87.32S359.5,502.74,394.4,454.5c31.93-44.14,76.53-50.71,76.53-50.71s19-50.34,65.26-76.06c67.61-37.56,120.66-22.53,120.66-22.53s35.19-31,107.52-31c80.75,0,123.47,46.48,123.47,46.48s48.36-10.8,114.09,30.52c51.6,32.43,71.83,83.57,71.83,83.57s46.49,21.13,69,73.24,11.27,102.82,11.27,102.82,45.07,56.81,10.33,125.36c-28.15,55.53-75.12,54.93-75.12,54.93s-15.5,63.38-112.68,77.47S803.49,834.39,784.4,773.32Z"/><path class="cls-12" d="M545.89,966c-59.69,0-95.24-20.27-114.54-37.28-18.72-16.49-26.12-32.85-27.73-36.81-5.86-3.55-41-26.21-60.37-71.16-20.57-47.67-5.31-83.35-1.91-90.27-3.44-7.59-21.28-49.64-15.18-93.25,8.15-58.18,36.44-82.83,43.32-88-2-9.17-9-52.11,22.87-96.2,29.32-40.53,68.58-49.91,76.75-51.47,3.45-8.43,23-52.21,65.86-76,38.41-21.34,72.23-25.82,93.83-25.82a123.1,123.1,0,0,1,27.43,2.73c6.45-5.19,41.63-30.75,108.15-30.75,74.21,0,117.35,39.37,124.33,46.27a93.49,93.49,0,0,1,15-1.06c18.07,0,55,4.18,99.59,32.17,47.84,30.08,69.34,76.65,72.44,83.84,6.86,3.34,48.19,25.11,69.39,74.11,20.7,47.89,13.14,95.22,11.65,103.21a126.63,126.63,0,0,1,17.9,36.86c6.46,21.22,10.3,54.1-8,90.26-11.58,22.83-28.29,39.78-48.34,49a78.4,78.4,0,0,1-27.12,7.25c-1.54,4.79-6.69,18.12-19.94,32.68-14.9,16.37-43.35,37.44-94.3,44.82a237.76,237.76,0,0,1-34,2.49c-39,0-75.16-10.06-104.65-29.08-25.07-16.17-43.83-38.16-53.56-62.56a292.4,292.4,0,0,1-36,78.25c-17,25.87-37.53,47.42-60.92,64-29.24,20.78-63.08,33.87-100.58,38.89A313.28,313.28,0,0,1,545.89,966Zm82.9-661.26c-21,0-53.9,4.37-91.37,25.19-44.89,24.94-63.93,74.24-64.12,74.74a2.57,2.57,0,0,1-2,1.61c-.44.06-44,7-74.85,49.68-33.8,46.73-21.8,93.17-21.67,93.64a2.53,2.53,0,0,1-1.06,2.77c-.33.22-33.78,23-42.54,85.56-6.39,45.62,15.05,91.06,15.27,91.52a2.53,2.53,0,0,1-.07,2.32c-.2.36-19.92,37.28,1.52,87,20.09,46.58,58.64,69,59,69.23a2.5,2.5,0,0,1,1.13,1.35c.07.18,6.69,18.12,26.88,35.8,33.77,29.6,79,35.82,111,35.81a308.34,308.34,0,0,0,40.67-2.84c36.63-4.91,69.68-17.67,98.23-37.94,22.86-16.23,42.92-37.29,59.61-62.6,28.51-43.21,37.43-84.36,37.52-84.77a2.54,2.54,0,0,1,2.36-2,2.58,2.58,0,0,1,2.54,1.78c8.25,26.39,27.52,50.43,54.26,67.68C869.76,858.75,905,868.52,943,868.52a231.9,231.9,0,0,0,33.22-2.43c94.41-13.68,110.44-75,110.59-75.56a2.52,2.52,0,0,1,2.46-1.93h0c1.89,0,46-.61,72.83-53.55a114.42,114.42,0,0,0,7.76-86.31c-6.69-22.1-17.71-36.19-17.82-36.33a2.51,2.51,0,0,1-.48-2.12c.11-.5,10.8-50.56-11.12-101.26s-67.29-71.74-67.74-71.95a2.51,2.51,0,0,1-1.31-1.37c-.2-.5-20.58-50.77-70.83-82.36C957.12,326,921.22,322,903.69,322a79.84,79.84,0,0,0-15.3,1.21,2.49,2.49,0,0,1-2.41-.75c-.11-.12-10.77-11.57-31-22.86-18.66-10.4-49.52-22.81-90.58-22.81-70.56,0-105.5,30.05-105.85,30.36a2.53,2.53,0,0,1-2.36.53C656.06,307.61,645.75,304.76,628.79,304.76Z"/><path class="cls-6" d="M997.23,1244.57c7.33,8,16.39,8.2,27.7,1.1,26.86-16.84,40.35-49.87,49.66-68.5,7-14.08,25.31-50.58,16.33-64.39-4.49-6.92-24.34-16.41-28.81-17.17-12.65-2.15-55,29.63-53.74,46,1.79,23.08-23.44,60.1-19.69,83.53C989.52,1230.44,991.79,1238.61,997.23,1244.57Z"/><path class="cls-7" d="M1010.16,1253.34h0c-5.55,0-10.53-2.37-14.8-7.06-6.19-6.79-8.41-15.89-9.18-20.7-2.07-12.91,4.07-29.35,10-45.25,5.14-13.78,10.47-28,9.66-38.48-.56-7.25,5.74-15.71,11.12-21.52,14.92-16.12,35.07-27.36,43.82-27.36a10.67,10.67,0,0,1,1.74.14c4.83.82,25.47,10.52,30.52,18.29,8.64,13.3-4.1,42.72-16.17,66.86-1.11,2.2-2.24,4.55-3.44,7-9.08,18.81-22.8,47.24-47.16,62.51C1020.35,1251.54,1015.08,1253.34,1010.16,1253.34Zm50.63-155.3c-8.22,0-28.08,12.74-40.1,25.73-6.55,7.07-10.12,13.52-9.79,17.68.89,11.58-4.38,25.7-10,40.65-5.7,15.29-11.6,31.09-9.75,42.68.68,4.25,2.62,12.27,7.92,18.09,3.32,3.64,6.94,5.41,11.06,5.41h0c3.89,0,8.4-1.6,13.43-4.75,23.12-14.5,35.93-41,45.28-60.43,1.22-2.51,2.36-4.88,3.45-7.06,6.12-12.23,24.65-49.3,16.48-61.88-4-6.17-23.26-15.4-27.12-16.06A5.93,5.93,0,0,0,1060.79,1098Z"/><path class="cls-8" d="M1083,1193c8.1-17.26,25.1-52.27,21-68.82a15.15,15.15,0,0,0-13.12-11.42c3.76,14.88-3.66,38-26.19,83.06-12.83,25.64-38.46,59.57-59.85,53.58-9.54-2.67-13.56-16.16-15.6-21.1-2.16,7.26,10.68,29.67,26.85,30,7.74.14,16.54-2,25.5-8.31C1058,1238.44,1070.86,1219,1083,1193Z"/><path class="cls-7" d="M1016.85,1260.82h-.77c-8.05-.15-16.34-5.26-22.74-14-4.31-5.91-8-14.14-6.48-19.21a2.53,2.53,0,0,1,4.77-.24c.24.6.52,1.32.83,2.13,2.07,5.41,5.92,15.48,13.1,17.49a16.46,16.46,0,0,0,4.44.61h0c17.88,0,39.73-27.42,52.46-52.89,22.25-44.5,29.54-67.3,26-81.3a2.52,2.52,0,0,1,2.78-3.13,17.72,17.72,0,0,1,15.25,13.32c4.15,16.73-11,49-20.11,68.25l-1.06,2.25c-13.69,29.17-26.72,47-42.24,58C1034.82,1257.87,1026,1260.82,1016.85,1260.82Zm-10.8-8.53a19,19,0,0,0,10.13,3.46h.67c8.08,0,15.92-2.64,23.32-7.85,14.77-10.39,27.28-27.65,40.57-56l1.07-2.26c8.21-17.44,23.49-49.89,19.77-64.87a12.1,12.1,0,0,0-7.45-8.58c1.85,15.47-5.93,38.32-27.14,80.74-10.34,20.68-34,55.68-57,55.68h0A21.66,21.66,0,0,1,1006.05,1252.29Z"/><path class="cls-6" d="M1002.85,1209c-.14,1.21-.1,2.61.79,3.43s2.56.71,3.77.16c4.94-2.23,17.14-24.19,11.18-27C1010,1181.55,1003.45,1203.82,1002.85,1209Z"/><path class="cls-7" d="M1005.41,1215.57h0a5.06,5.06,0,0,1-3.48-1.29c-2-1.87-1.7-4.67-1.6-5.59a60.25,60.25,0,0,1,4.4-14.46c3.45-7.74,7.41-11.66,11.77-11.66a7.43,7.43,0,0,1,3.16.72c1.16.54,3.09,2,3.07,5.75-.06,8-9.28,23.59-14.27,25.84A7.68,7.68,0,0,1,1005.41,1215.57Zm0-5.07h0a2.5,2.5,0,0,0,1-.24c2.22-1,9-10.91,10.89-18.58.63-2.54.36-3.65.22-3.83a2.45,2.45,0,0,0-1-.22c-1.58,0-4.29,2.28-7.14,8.67a55.62,55.62,0,0,0-4,13A3.76,3.76,0,0,0,1005.37,1210.5Z"/><path class="cls-6" d="M1072.68,1111.32c-.12-.57-.26-1.14-.4-1.7-1.63-6.3-5.34-12.84-11.62-14.51-5-1.32-10.15.75-14.69,3.13a98.23,98.23,0,0,0-19.64,13.93c-19.34,17.12-23.38,30.84-14.72,40.21a27.64,27.64,0,0,0,4.86,4.14,11.14,11.14,0,0,1,3.36,5.77c.66,3.54-.73,6.81-2.25,9.93a40.66,40.66,0,0,1,8.18.07c-1-2-.1-5.31.75-7.31a9.6,9.6,0,0,1,5.93-5.46,21.42,21.42,0,0,1,6.25-.52c9.91,0,17.53-4.17,24.26-11.19C1072.41,1137.94,1075.57,1124.56,1072.68,1111.32Z"/><path class="cls-7" d="M1025.76,1174.82l-.27,0a39.42,39.42,0,0,0-7.68-.06,2.53,2.53,0,0,1-2.51-3.63c1.38-2.81,2.56-5.56,2-8.34a8.38,8.38,0,0,0-2.52-4.3,30.51,30.51,0,0,1-5.07-4.37,17.73,17.73,0,0,1-5-13.34c.45-9,7.14-19.21,19.88-30.49a100.71,100.71,0,0,1,20.14-14.27c3.4-1.79,7.92-3.84,12.64-3.84a15.12,15.12,0,0,1,3.88.5c6.28,1.67,11.18,7.62,13.42,16.33.15.59.3,1.19.43,1.79,3.15,14.47-.63,28.61-10.38,38.78-7.82,8.17-16.11,12-26.09,12h-1.4a14.76,14.76,0,0,0-4.12.41,7.13,7.13,0,0,0-4.33,4c-.83,2-1.18,4-.86,5a2.56,2.56,0,0,1,.34,1.27,2.53,2.53,0,0,1-2.53,2.53Zm-4.25-5.3,1.31,0a17.33,17.33,0,0,1,1.35-5.54,12.17,12.17,0,0,1,7.55-6.91,19.14,19.14,0,0,1,5.57-.63h1.4c8.5,0,15.63-3.31,22.43-10.41,8.57-8.94,11.88-21.41,9.09-34.2-.12-.54-.25-1.07-.39-1.61-1.74-6.78-5.41-11.52-9.81-12.69a9.92,9.92,0,0,0-2.58-.33c-3.62,0-7.4,1.74-10.29,3.26a95.48,95.48,0,0,0-19.13,13.58c-11.52,10.19-17.81,19.51-18.18,27a12.73,12.73,0,0,0,3.64,9.65,25.66,25.66,0,0,0,4.42,3.76,2,2,0,0,1,.39.33,13.52,13.52,0,0,1,4,7.07A14.58,14.58,0,0,1,1021.51,1169.52Z"/><path class="cls-6" d="M1065.34,1195.66a.74.74,0,0,1-.78-.1c-9.56-7.76-25.4-18.5-34.13-21.47a29.92,29.92,0,0,0-16.12-.43c-7.66,1.76-12.46,4.25-14.7,7.62a.76.76,0,0,1-1,.21.75.75,0,0,1-.21-1c2.46-3.7,7.56-6.4,15.61-8.25a31.47,31.47,0,0,1,17,.47c8.9,3,24.88,13.84,34.58,21.73a.75.75,0,0,1,.11,1A.79.79,0,0,1,1065.34,1195.66Z"/><path class="cls-7" d="M1065,1198.26a3.28,3.28,0,0,1-2.06-.73c-10.1-8.21-25.33-18.32-33.35-21a27.54,27.54,0,0,0-14.74-.36c-6.9,1.59-11.33,3.79-13.16,6.55a3.37,3.37,0,0,1-4.56.91,3.28,3.28,0,0,1-.91-4.54c2.84-4.27,8.45-7.32,17.15-9.32a34.14,34.14,0,0,1,18.33.54c9,3.07,25,13.71,35.37,22.16a3.29,3.29,0,0,1-.72,5.54A3.24,3.24,0,0,1,1065,1198.26Z"/><path class="cls-9" d="M1039.13,1151.06c25.9-8,30.89-18.81,25.67-47.25-2.27-12.39-38-110.29-31.75-162.06s-40.83-81.36-59.61-20.22,23.73,181.94,27.08,193.49C1006.55,1135.77,1024.19,1155.67,1039.13,1151.06Z"/><path class="cls-7" d="M1034.64,1154.26h0c-15.65,0-31.15-20-36.54-38.54-.29-1-.88-2.83-1.7-5.37-19.5-60.69-39.73-142.83-25.37-189.56,7-22.88,19.06-36,33-36,7,0,14,3.48,19.59,9.82,9.75,11,14.21,28.73,11.94,47.44-4.91,40.49,16.37,110,26.59,143.4,2.8,9.14,4.65,15.19,5.15,17.9,5.53,30.21-.88,41.92-27.43,50.13A17.72,17.72,0,0,1,1034.64,1154.26ZM1004,889.85c-11.57,0-21.84,11.82-28.17,32.42-14,45.48,6.08,126.54,25.35,186.53.84,2.61,1.45,4.48,1.74,5.51,5.5,18.91,20,34.89,31.68,34.89h0a12.69,12.69,0,0,0,3.74-.56c24.11-7.45,29-16.57,23.93-44.37-.44-2.43-2.36-8.69-5-17.34C1047,1053.19,1025.5,983,1030.53,941.44c2.1-17.3-1.9-33.55-10.7-43.47C1015.2,892.73,1009.58,889.85,1004,889.85Z"/><path class="cls-10" d="M981.23,720.52S958.42,789.08,955,852.62c-3.5,65.11,10.12,124.6,10.12,124.6s11.36,15.88,30.63,12.18,40.65-18.74,40.65-18.74-7.31-66.59-7-87.06c.73-52.49,5-93.51,23.07-128.84C1072.25,716.09,981.23,720.52,981.23,720.52Z"/><path class="cls-11" d="M990,992.49h0c-16.85,0-26.51-13.24-26.91-13.8a2.35,2.35,0,0,1-.41-.91c-.14-.6-13.65-60.58-10.18-125.3,3.39-63.15,26.12-132.07,26.35-132.76a2.53,2.53,0,0,1,2.28-1.73c.13,0,3.27-.16,8.29-.16,20.51,0,56.36,2.35,66,18,3.47,5.68,3.24,12.42-.66,20-17.93,35-22.07,76.38-22.78,127.73-.28,20.08,6.94,86.08,7,86.75a2.52,2.52,0,0,1-1.06,2.35c-.89.62-22.06,15.38-41.63,19.14A32.7,32.7,0,0,1,990,992.49Zm-22.5-16.37c1.61,2,9.77,11.3,22.5,11.3h0a28.3,28.3,0,0,0,5.3-.51c15.94-3.07,33.69-14.32,38.45-17.49-1.11-10.28-7.14-66.94-6.88-85.85.72-52.06,5-94.09,23.34-130,3.09-6,3.37-11,.85-15.09-8.86-14.49-49.42-15.62-61.64-15.62-2.72,0-4.9,0-6.3.09-3.47,10.86-22.5,72.75-25.56,129.76C954.28,913.53,966.15,970,967.48,976.12Z"/><path class="cls-7" d="M365.64,733.71a187,187,0,0,1-24.15-1.58,2.53,2.53,0,1,1,.65-5c34.82,4.51,61-1.84,84-7.45,20.34-4.95,37.91-9.22,57.42-5.67a2.53,2.53,0,1,1-.91,5c-18.45-3.36-35.54.8-55.32,5.61C409.48,728.93,389.79,733.71,365.64,733.71Z"/><path class="cls-7" d="M497.22,587.55a2.53,2.53,0,0,1-1.79-.74c-25.3-25.3-44.29-24.48-66.29-23.54-18,.76-36.6,1.56-60.39-11.72a2.54,2.54,0,0,1,2.47-4.43c22.54,12.59,40.42,11.82,57.71,11.09,22.22-1,43.21-1.85,70.08,25a2.53,2.53,0,0,1-1.79,4.32Z"/><path class="cls-7" d="M589.24,458.91a2.54,2.54,0,0,1-2.15-1.2c-10.26-16.51-31.62-20.62-54.23-25-23.85-4.59-48.51-9.33-66.13-28.16a2.53,2.53,0,1,1,3.7-3.46c16.5,17.63,40.34,22.21,63.39,26.65,23.73,4.56,46.14,8.88,57.57,27.27a2.53,2.53,0,0,1-2.15,3.87Z"/><path class="cls-7" d="M716,428.86a2.54,2.54,0,0,1-2.52-2.35c-1.36-19.06-14.69-37.87-28.81-57.78-14.29-20.16-29.07-41-32.67-64.08a2.54,2.54,0,0,1,5-.78c3.42,21.89,17.84,42.25,31.8,61.93,14.53,20.51,28.26,39.88,29.72,60.35a2.53,2.53,0,0,1-2.34,2.7Z"/><path class="cls-7" d="M865.31,425.11a2.39,2.39,0,0,1-.94-.19,2.53,2.53,0,0,1-1.41-3.29c9.13-22.84,9.43-38.41,9.73-53.46.29-15.36.58-29.86,10.55-49.56a2.53,2.53,0,1,1,4.52,2.28c-9.45,18.67-9.71,32-10,47.38-.29,14.78-.61,31.54-10.09,55.24A2.55,2.55,0,0,1,865.31,425.11Z"/><path class="cls-7" d="M984.56,524.64a2.54,2.54,0,0,1-1.39-4.66c26.28-17.19,34.79-29.73,43.81-43,8.78-12.94,17.86-26.32,42.92-45.17a2.53,2.53,0,0,1,3,4.05c-24.38,18.34-33.22,31.37-41.77,44-9.31,13.71-18.1,26.65-45.22,44.4A2.54,2.54,0,0,1,984.56,524.64Z"/><path class="cls-7" d="M1019.3,638.26a2.53,2.53,0,0,1-.72-5c17.89-5.33,34.56-6.12,50.68-6.89,24.38-1.16,49.58-2.35,81.28-18.76a2.53,2.53,0,0,1,2.33,4.5c-32.69,16.91-58.45,18.14-83.37,19.32-16.55.79-32.18,1.53-49.47,6.68A2.64,2.64,0,0,1,1019.3,638.26Z"/><path class="cls-7" d="M682.74,746.33c-54,0-78.49-25.28-98.86-46.34C565,680.42,550,665,518,672.1a2.53,2.53,0,0,1-1.1-4.94c34.74-7.75,51.35,9.42,70.58,29.31,25.27,26.12,53.91,55.74,134.59,40.89a2.53,2.53,0,0,1,.92,5A222.87,222.87,0,0,1,682.74,746.33Z"/><path class="cls-7" d="M616.37,848.86a90.46,90.46,0,0,1-14.15-1.07c-24.59-3.92-44.36-19.12-60.47-46.46a2.53,2.53,0,0,1,4.37-2.57c34.09,57.88,78.16,47.14,120.78,36.75,31.12-7.59,63.3-15.43,89.2,5.53a2.53,2.53,0,0,1-3.19,3.94C729,825.59,699.4,832.8,668.1,840.43,651.05,844.59,633.54,848.86,616.37,848.86Z"/><path class="cls-7" d="M639.72,551.87a2.53,2.53,0,0,1-2.06-1c-19.57-27-43.13-27.79-68.08-28.67-21-.74-42.76-1.5-61.85-18.83a2.53,2.53,0,1,1,3.4-3.75c17.72,16.08,37.6,16.78,58.63,17.52,25.06.88,51,1.79,72,30.76a2.54,2.54,0,0,1-2,4Z"/><path class="cls-7" d="M590.42,613.84a2.53,2.53,0,0,1-1.18-4.77c25.1-13.15,34.81-31.36,45.08-50.63,13.34-25,27.12-50.86,75.81-65.06,46-13.41,72.38-3.58,97.89,5.93,18,6.71,35,13.05,57.89,10a2.53,2.53,0,0,1,.68,5c-24.11,3.27-41.71-3.29-60.34-10.24-24.74-9.21-50.32-18.75-94.7-5.8-46.64,13.6-59.33,37.39-72.76,62.57-10.18,19.11-20.72,38.86-47.2,52.73A2.47,2.47,0,0,1,590.42,613.84Z"/><path class="cls-7" d="M789,497.64a2.41,2.41,0,0,1-1.13-.27,2.52,2.52,0,0,1-1.13-3.39c12.47-25,11.43-79.63-2.23-117a2.53,2.53,0,1,1,4.76-1.74c14.31,39.16,15.22,94.58,2,121A2.53,2.53,0,0,1,789,497.64Z"/><path class="cls-7" d="M699.57,501.16a2.52,2.52,0,0,1-2.5-2.19c-4.67-34-33.36-56.71-56.42-75-11.33-9-21.11-16.69-26.92-24.6a2.53,2.53,0,1,1,4.08-3c5.41,7.36,14.94,14.9,26,23.63,23.77,18.8,53.36,42.19,58.29,78.24a2.53,2.53,0,0,1-2.16,2.85A2.06,2.06,0,0,1,699.57,501.16Z"/><path class="cls-7" d="M784.4,775.86h-.15a2.53,2.53,0,0,1-2.38-2.68c4.49-76.54-33.06-109.55-63.24-136.07-14.44-12.69-26.91-23.66-33.32-37.4a2.53,2.53,0,0,1,4.59-2.14c6,12.78,18.06,23.42,32.07,35.73,31,27.25,69.59,61.17,65,140.18A2.54,2.54,0,0,1,784.4,775.86Z"/><path class="cls-7" d="M783.38,747a2.48,2.48,0,0,1-.54-.06,2.54,2.54,0,0,1-1.94-3c0-.15,3.47-16.82,3.47-72,0-57.17,18.32-87.74,37.09-114.15a2.53,2.53,0,0,1,4.13,2.93c-19.06,26.82-36.16,55.5-36.16,111.22,0,56-3.43,72.4-3.57,73.07A2.54,2.54,0,0,1,783.38,747Z"/><path class="cls-7" d="M818.59,716a2.54,2.54,0,0,1-.91-4.9c29.22-11.29,45.73-35.21,63.21-60.53,18.89-27.36,38.41-55.65,75.54-69.76a2.54,2.54,0,0,1,1.8,4.74c-35.65,13.55-54.73,41.18-73.17,67.9-17.94,26-34.88,50.53-65.56,62.38A2.62,2.62,0,0,1,818.59,716Z"/><polygon class="cls-5" points="1271.89 875.17 1388.8 845.12 1391.15 791.6 1272.83 818.83 1271.89 875.17"/><path class="cls-3" d="M1271.89,877.7a2.6,2.6,0,0,1-1.57-.54,2.54,2.54,0,0,1-1-2l.94-56.34a2.53,2.53,0,0,1,2-2.43l118.32-27.23a2.55,2.55,0,0,1,2.19.52,2.58,2.58,0,0,1,.91,2.06l-2.35,53.52a2.53,2.53,0,0,1-1.9,2.34l-116.91,30A2.72,2.72,0,0,1,1271.89,877.7Zm3.44-56.85-.85,51,111.87-28.76,2.12-48.32Z"/><path class="cls-6" d="M508.67,1005.31s20.54,50.07,0,50.07S508.67,1005.31,508.67,1005.31Z"/><path class="cls-7" d="M508.67,1057.91a10.35,10.35,0,0,1-9.05-4.54c-8.09-12,5.16-45.27,6.7-49a2.54,2.54,0,0,1,4.69,0c1.54,3.75,14.79,37,6.7,49A10.34,10.34,0,0,1,508.67,1057.91Zm0-45.37c-1.19,3.39-2.64,7.83-3.88,12.56-3.26,12.48-3.6,21.52-1,25.45a6.24,6.24,0,0,0,9.68,0c2.64-3.93,2.29-13-1-25.5C511.29,1020.34,509.85,1015.91,508.67,1012.54Z"/><path class="cls-6" d="M510.07,1161.31s20.54,50.06,0,50.06S510.07,1161.31,510.07,1161.31Z"/><path class="cls-7" d="M510.07,1213.91a10.34,10.34,0,0,1-9-4.54c-8.09-12.06,5.16-45.28,6.7-49a2.54,2.54,0,0,1,4.69,0c1.54,3.75,14.79,37,6.7,49A10.35,10.35,0,0,1,510.07,1213.91Zm0-45.38c-1.18,3.39-2.63,7.84-3.87,12.56-3.26,12.49-3.6,21.53-1,25.46a6.25,6.25,0,0,0,9.67,0c2.64-3.93,2.3-13-1-25.46C512.71,1176.37,511.26,1171.92,510.07,1168.53Z"/><path class="cls-11" d="M507.32,916.91c-21.29,0-50.75-16.68-66.66-40.33a2.53,2.53,0,0,1,4.2-2.83c20,29.68,59,44.93,74.7,35.09,11.35-7.11,8.57-27.13-7.63-54.93a2.53,2.53,0,1,1,4.38-2.55c24.32,41.75,14.16,56.62,5.94,61.78C518.14,915.71,513,916.91,507.32,916.91Z"/><path class="cls-11" d="M398.2,922.32c-13.34,0-37.8-14.23-55.12-37.17a2.53,2.53,0,0,1,4-3.06,109.39,109.39,0,0,0,30.18,27.49c11,6.62,19,8.21,22.77,7.52,2.11-.39,2.39-1.38,2.5-1.75.38-1.34,1.1-9.12-22.56-30.8a2.54,2.54,0,0,1,3.43-3.74c12.39,11.36,26.61,26.82,24,35.94-.81,2.81-3.09,4.71-6.44,5.33A15.46,15.46,0,0,1,398.2,922.32Z"/><path class="cls-4" d="M778.91,716.64a132.33,132.33,0,0,1,3.67,15.93c1.79,10.9,3.87,24.9,1.31,36.82l488,105.78.94-56.34Z"/><path class="cls-3" d="M1271.89,877.7a2.33,2.33,0,0,1-.53-.06l-488-105.78a2.52,2.52,0,0,1-1.94-3c2.39-11.1.57-24.34-1.33-35.88a129.94,129.94,0,0,0-3.6-15.63,2.53,2.53,0,0,1,2.94-3.19l493.92,102.19a2.52,2.52,0,0,1,2,2.52l-.93,56.34a2.54,2.54,0,0,1-2.54,2.49ZM786.83,767.44,1269.41,872l.85-51.16L782.46,720c1.08,4.1,2,8.19,2.62,12.2C786.91,743.33,788.68,756.07,786.83,767.44Z"/><path class="cls-2" d="M747.4,661.18c14.7,16.6,25.83,35.4,31.88,56.75l493.55,100.9,118.32-27.23Z"/><path class="cls-3" d="M1272.83,821.36a2.94,2.94,0,0,1-.51-.05L778.77,720.41a2.55,2.55,0,0,1-1.93-1.79c-5.63-19.88-16.17-38.64-31.34-55.76a2.53,2.53,0,0,1,2.4-4.16l643.75,130.42a2.53,2.53,0,0,1,.06,5L1273.4,821.3A2.76,2.76,0,0,1,1272.83,821.36ZM781.29,715.76,1272.8,816.24l106.37-24.48L754.06,665.12C766.84,680.85,776,697.84,781.29,715.76Z"/><polygon class="cls-6" points="875.47 737.6 1077.92 778.98 1195.4 751.94 994.49 711.24 875.47 737.6"/><path class="cls-13" d="M1077.92,781.52a2.22,2.22,0,0,1-.51-.06L875,740.08a2.54,2.54,0,0,1,0-5l119-26.35a2.48,2.48,0,0,1,1,0l200.92,40.7a2.53,2.53,0,0,1,.06,4.95l-117.48,27A2.78,2.78,0,0,1,1077.92,781.52Zm-190.29-44,190.26,38.89,105.54-24.29L994.51,713.83Z"/><polygon class="cls-14" points="1077.92 778.98 1077.92 833.38 876.58 790.19 875.47 737.6 1077.92 778.98"/><path class="cls-15" d="M1077.92,835.92a2.46,2.46,0,0,1-.53-.06L876,792.66a2.53,2.53,0,0,1-2-2.42l-1.1-52.59a2.49,2.49,0,0,1,.91-2,2.54,2.54,0,0,1,2.12-.54l202.46,41.39a2.53,2.53,0,0,1,2,2.48v54.4a2.55,2.55,0,0,1-2.53,2.54ZM879.06,788.13l196.33,42.12v-49.2L878.07,740.71Z"/><path class="cls-9" d="M711.55,697.46c48.39-11.17,82.39,124.89,73.94,236.63s-55.63,239.44-59.86,250-9.15,26.05-21.83,23.94c-7.67-1.28-4.93-21.13-4.93-21.13s-6.34,21.13-19,19-5.64-21.83-5.64-21.83-1.41,13.38-12.67,12-7-15.5-1.41-28.17,44.5-136.74,50-218.32C719.29,813.66,647.46,712.25,711.55,697.46Z"/><path class="cls-12" d="M706.09,1210.77a16.9,16.9,0,0,1-2.71-.23c-4.93-.82-6.79-6.14-7.35-11.63-3.23,5-8,9.7-14.41,9.7a13.45,13.45,0,0,1-2.18-.18,10.66,10.66,0,0,1-7.36-4.48,14.45,14.45,0,0,1-2.27-7.14,12.62,12.62,0,0,1-8.58,1.77c-3.67-.46-6.31-2.07-7.85-4.8-2.91-5.15-1.54-13.45,4.44-26.91,4.61-10.38,44.22-134.67,49.79-217.46,3.9-57.92-7-109.52-15.74-151C680.3,743.61,671.94,704,711,695a27.34,27.34,0,0,1,6.13-.71c8.77,0,17.24,4.35,25.19,12.92,32.07,34.58,52.57,136.45,45.72,227.08-8.84,116.85-59.53,249.49-60,250.76-.32.81-.65,1.64-1,2.5C723.16,1197.34,717.91,1210.77,706.09,1210.77Zm-7.22-26.39a2.48,2.48,0,0,1,.54.06,2.53,2.53,0,0,1,2,2.82c-1,7.12-.53,17.72,2.84,18.28a11.07,11.07,0,0,0,1.87.16c8.37,0,12.7-11.09,16.19-20,.34-.87.67-1.72,1-2.55.5-1.25,50.91-133.13,59.69-249.25a504.84,504.84,0,0,0-8-131.82c-8.41-42.69-21.35-75.16-36.43-91.43-8.52-9.19-17.42-12.82-26.47-10.72-34.19,7.89-27.08,41.6-15.29,97.46,8.81,41.76,19.78,93.74,15.84,152.36-5.4,80.06-43.67,204.43-50.22,219.18-5.05,11.36-6.62,18.89-4.66,22.35.46.82,1.38,1.94,4.07,2.27q6,.77,8.66-5.46a40,40,0,0,1,1.32-4.85,2.53,2.53,0,0,1,4.9,1.12,21.94,21.94,0,0,1-1.35,5.21c-1,5.15-.71,9.23.86,11.51a5.72,5.72,0,0,0,4,2.35,9,9,0,0,0,1.35.11c7.86,0,13.37-12.53,14.83-17.36A2.51,2.51,0,0,1,698.87,1184.38Z"/><path class="cls-10" d="M711.55,697.46c-56,12.92-8.22,92-1.38,202.42,21.31,7.06,53.05,8.46,76.61.89C787.15,797.15,755.2,687.39,711.55,697.46Z"/><path class="cls-11" d="M750.79,908.38h0c-14.85,0-29.56-2.16-41.42-6.09a2.55,2.55,0,0,1-1.73-2.25c-2.36-38-9.48-71.81-15.77-101.6C680.3,743.61,671.94,704,711,695c10.29-2.37,20.45,1.25,29.82,10.65,28.41,28.52,48.81,110.59,48.51,195.14a2.54,2.54,0,0,1-1.76,2.4C777,906.58,764.26,908.38,750.79,908.38ZM712.59,898c11.07,3.43,24.55,5.31,38.2,5.31a119.39,119.39,0,0,0,33.46-4.41c0-82.67-19.69-162.24-47-189.68-8.1-8.14-16.53-11.28-25.09-9.29-34.19,7.89-27.08,41.6-15.29,97.46C703.06,826.9,710.1,860.29,712.59,898Z"/><path class="cls-6" d="M403.77,825.32a11.43,11.43,0,1,1,9.9-17.13,11.42,11.42,0,0,1-9.9,17.13Zm0-17.8a6.46,6.46,0,0,0-3.17.85,6.37,6.37,0,1,0,3.17-.85Z"/><path class="cls-6" d="M323.16,857.91a13.8,13.8,0,1,1,11.95-20.68,13.81,13.81,0,0,1-11.95,20.68Zm0-22.53a8.73,8.73,0,0,0,0,17.46,8.74,8.74,0,0,0,7.56-13.09A8.77,8.77,0,0,0,323.14,835.38Z"/><path class="cls-6" d="M525.94,836.11a13.12,13.12,0,1,1,6.54-1.75A13.15,13.15,0,0,1,525.94,836.11Zm0-21.16a8,8,0,1,0,7,4A8,8,0,0,0,525.92,815Z"/><path class="cls-6" d="M662.31,885a12.44,12.44,0,1,1,6.2-1.66A12.49,12.49,0,0,1,662.31,885Zm0-19.8a7.37,7.37,0,1,0,6.39,3.69A7.42,7.42,0,0,0,662.3,865.24Z"/></svg>