<?xml version="1.0" encoding="UTF-8"?>
<svg width="1000pt" height="1000pt" version="1.1" viewBox="0 0 700 500" xmlns="http://www.w3.org/2000/svg">
 <path d="m574.44 542.67c-10.133 0.027344-19.855-4-27.004-11.188l-143.5-143.5-7.2383 7.2305h0.003907c-4.9961 4.7812-11.641 7.4453-18.555 7.4453-6.9102 0-13.555-2.6641-18.551-7.4453l-32.48-32.805c-179.61 63.867-321.52-156.25-188.14-293.38 136.77-133.18 357.45 8.2539 293.34 188.12l32.848 32.504v0.003907c4.9102 4.9219 7.668 11.594 7.6719 18.547 0 6.957-2.7539 13.625-7.6602 18.555l-7.2383 7.2305 143.5 143.5-0.003906-0.003906c7.0039 7.2227 10.895 16.898 10.844 26.953-0.050782 10.055-4.043 19.691-11.113 26.84-7.0742 7.1484-16.668 11.242-26.723 11.398zm-158.04-166.97 143.41 143.41c5.25 5.1016 12.805 7.0469 19.867 5.1172 7.0586-1.9297 12.578-7.4492 14.504-14.512 1.9258-7.0586-0.019532-14.613-5.1211-19.863l-143.4-143.41zm-72.094-20.781 27.66 27.918c3.4453 3.3242 8.9023 3.3242 12.348 0l68.48-68.461v-0.003906c3.3984-3.4102 3.4023-8.9297 0.007813-12.348l-27.957-27.668h-0.003906c-17.234 34.996-45.547 63.316-80.535 80.562zm-79.469-320.75c-141.3-1.0664-214.51 175.28-113.49 274.88 22.488 22.254 51.004 37.434 82.027 43.656 31.02 6.2227 63.184 3.2188 92.516-8.6406 162-68.078 114.53-308.24-61.055-309.89zm0.23438 301.32c-46.883-0.003907-90.664-23.41-116.71-62.387-26.047-38.98-30.91-88.387-12.973-131.7 17.941-43.312 56.32-74.805 102.3-83.953 45.98-9.1445 93.488 5.2656 126.64 38.41 26.047 26.43 40.609 62.07 40.52 99.176-0.089844 37.105-14.824 72.676-40.996 98.977-26.176 26.301-61.676 41.207-98.777 41.477zm0-263.18c-41.031 0-79.352 20.484-102.14 54.602-22.793 34.117-27.047 77.359-11.34 115.27 15.703 37.902 49.297 65.465 89.539 73.461 40.242 8 81.82-4.6211 110.83-33.637 22.781-23.137 35.512-54.324 35.43-86.793-0.085938-32.465-12.98-63.59-35.887-86.602-22.902-23.012-53.961-36.059-86.426-36.297zm-50.375 199.5c-6.9375-0.10547-13.555-2.9258-18.434-7.8594-4.8789-4.9297-7.6289-11.578-7.6641-18.512-0.035156-6.9375 2.6484-13.613 7.4805-18.59l31.75-31.746-31.75-31.762c-4.9102-4.9531-7.6641-11.645-7.6641-18.617 0-6.9766 2.7539-13.668 7.6641-18.621 5.0156-4.7852 11.684-7.4531 18.617-7.4531 6.9336 0 13.602 2.668 18.621 7.4531l31.754 31.754 31.754-31.754h-0.003906c6.6562-6.6523 16.352-9.25 25.441-6.8164 9.0898 2.4375 16.188 9.5352 18.625 18.625 2.4336 9.0859-0.16406 18.785-6.8164 25.438l-31.754 31.754 31.754 31.754c6.6523 6.6523 9.2461 16.352 6.8125 25.438-2.4375 9.0898-9.5352 16.188-18.625 18.621-9.0859 2.4336-18.785-0.16797-25.438-6.8203l-31.75-31.754-31.754 31.754c-4.9297 4.957-11.633 7.7344-18.621 7.7148zm0-135.93v0.003906c-3.543 0.054687-6.7148 2.2109-8.0703 5.4844-1.3594 3.2734-0.64062 7.043 1.8242 9.5898l37.938 37.957 0.003906-0.003906c1.6406 1.6406 2.5625 3.8672 2.5625 6.1875 0 2.3203-0.92188 4.5469-2.5625 6.1875l-37.941 37.941v-0.003906c-3.3203 3.4727-3.2617 8.9609 0.13672 12.359 3.3945 3.3984 8.8867 3.457 12.355 0.13281l37.938-37.938h0.003907c1.6406-1.6406 3.8633-2.5625 6.1836-2.5625 2.3203 0 4.5469 0.92188 6.1875 2.5625l37.941 37.941c3.4648 3.3281 8.9609 3.2734 12.363-0.12109 3.3984-3.3984 3.4609-8.8906 0.13672-12.363v-0.007813l-37.941-37.941c-1.6406-1.6406-2.5625-3.8672-2.5625-6.1875 0-2.3203 0.92188-4.543 2.5625-6.1836l37.941-37.949c3.3672-3.4648 3.3242-8.9922-0.09375-12.41-3.418-3.4141-8.9453-3.4492-12.41-0.082031l-37.941 37.938h0.003906c-1.6406 1.6406-3.8672 2.5625-6.1875 2.5625-2.3203 0-4.5469-0.92188-6.1875-2.5625l-37.941-37.941 0.003906 0.003907c-1.6562-1.6602-3.9023-2.5938-6.2461-2.5898z"/>
</svg>
