<svg width="385" height="80" viewBox="0 0 385 80" fill="none" xmlns="http://www.w3.org/2000/svg">
<g clip-path="url(#clip0_131_2189)">
<rect x="0.461975" y="42.3905" width="1453.08" height="36.3269" fill="white"/>
<rect x="0.461975" y="78.7174" width="1453.08" height="1.00908" fill="#DFE1E4"/>
<line x1="15.5982" y1="60.5539" x2="27.7072" y2="60.5539" stroke="#BABCBE" stroke-width="2.01816" stroke-linecap="round" stroke-linejoin="round"/>
<path d="M21.6527 54.4994L14.5891 60.5539L21.6527 66.6084" stroke="#BABCBE" stroke-width="2.01816" stroke-linecap="round" stroke-linejoin="round"/>
<line x1="59.9977" y1="60.5539" x2="47.8888" y2="60.5539" stroke="#BABCBE" stroke-width="2.01816" stroke-linecap="round" stroke-linejoin="round"/>
<path d="M53.9432 66.6084L61.0068 60.5539L53.9432 54.4994" stroke="#BABCBE" stroke-width="2.01816" stroke-linecap="round" stroke-linejoin="round"/>
<path d="M93.2974 59.5448L86.2338 59.5448L93.2974 52.4813L93.2974 59.5448Z" fill="#C4C4C4"/>
<path d="M92.2883 62.2838C91.5283 64.7847 89.1625 66.6084 86.3618 66.6084C82.9473 66.6084 80.1794 63.8977 80.1794 60.5539C80.1794 57.2101 82.9473 54.4994 86.3618 54.4994C88.1929 54.4994 89.838 55.279 90.9701 56.5176" stroke="#C4C4C4" stroke-width="2.01816"/>
<path fill-rule="evenodd" clip-rule="evenodd" d="M1397.03 46.4268H123.57C115.768 46.4268 109.443 52.7517 109.443 60.5539C109.443 68.3561 115.768 74.681 123.57 74.681H1397.03C1404.83 74.681 1411.16 68.3561 1411.16 60.5539C1411.16 52.7517 1404.83 46.4268 1397.03 46.4268Z" fill="#F1F3F4"/>
<path d="M145.221 68.8956C145.653 68.8956 146.019 68.8266 146.317 68.6886C146.616 68.5507 146.872 68.3368 147.083 68.0471C147.295 67.7574 147.486 67.3849 147.656 66.9296L150.456 59.3073H149.194L147.118 65.5569L147.373 65.281H147.014L147.269 65.5569L145.2 59.3073H143.917L146.58 66.4882L146.435 66.8952C146.292 67.2998 146.106 67.5689 145.876 67.7022C145.651 67.8356 145.347 67.9023 144.965 67.9023C144.892 67.9023 144.821 67.8977 144.752 67.8885C144.687 67.8793 144.63 67.8701 144.579 67.8609V68.8404C144.657 68.8542 144.754 68.8657 144.869 68.8749C144.988 68.8887 145.106 68.8956 145.221 68.8956ZM154.31 66.6192C154.973 66.6192 155.552 66.4675 156.049 66.164C156.545 65.8605 156.932 65.4305 157.208 64.874C157.488 64.3176 157.628 63.6577 157.628 62.8943V62.8805C157.628 62.1171 157.488 61.4595 157.208 60.9077C156.932 60.3512 156.543 59.9236 156.042 59.6247C155.545 59.3211 154.966 59.1694 154.303 59.1694C153.646 59.1694 153.066 59.3211 152.565 59.6247C152.069 59.9236 151.68 60.3512 151.399 60.9077C151.123 61.4595 150.986 62.1171 150.986 62.8805V62.8943C150.986 63.6531 151.123 64.313 151.399 64.874C151.68 65.4305 152.069 65.8605 152.565 66.164C153.066 66.4675 153.648 66.6192 154.31 66.6192ZM154.317 65.5569C153.894 65.5569 153.524 65.4535 153.207 65.2465C152.894 65.035 152.65 64.7315 152.475 64.336C152.301 63.9359 152.213 63.4553 152.213 62.8943V62.8805C152.213 62.3195 152.301 61.8435 152.475 61.4526C152.65 61.0571 152.894 60.7559 153.207 60.549C153.524 60.3374 153.89 60.2317 154.303 60.2317C154.727 60.2317 155.094 60.3351 155.407 60.5421C155.724 60.749 155.968 61.0502 156.138 61.4457C156.313 61.8412 156.4 62.3195 156.4 62.8805V62.8943C156.4 63.4553 156.313 63.9359 156.138 64.336C155.968 64.7315 155.727 65.035 155.414 65.2465C155.106 65.4535 154.74 65.5569 154.317 65.5569ZM161.503 66.6192C162.05 66.6192 162.506 66.5112 162.869 66.295C163.237 66.0743 163.517 65.7961 163.71 65.4604H163.738V66.4813H164.938V59.3073H163.738V63.5289C163.738 63.9336 163.66 64.29 163.503 64.5981C163.352 64.9016 163.136 65.1385 162.855 65.3086C162.575 65.4742 162.246 65.5569 161.869 65.5569C161.317 65.5569 160.903 65.4029 160.627 65.0948C160.356 64.7821 160.22 64.3337 160.22 63.7497V59.3073H159.02V63.9635C159.02 64.5061 159.116 64.9775 159.309 65.3776C159.507 65.7731 159.79 66.0789 160.158 66.295C160.53 66.5112 160.979 66.6192 161.503 66.6192ZM166.716 66.4813H167.916V61.9976C167.916 61.6573 167.978 61.363 168.103 61.1146C168.231 60.8617 168.411 60.6663 168.641 60.5283C168.875 60.3857 169.146 60.3145 169.455 60.3145C169.602 60.3145 169.733 60.3214 169.848 60.3351C169.967 60.3489 170.05 60.365 170.096 60.3834V59.2177C170.05 59.2085 169.983 59.1993 169.896 59.1901C169.813 59.1763 169.719 59.1694 169.613 59.1694C169.195 59.1694 168.829 59.2867 168.516 59.5212C168.208 59.7557 167.994 60.0707 167.875 60.4662H167.847V59.3073H166.716V66.4813ZM173.833 66.6192C174.366 66.6192 174.842 66.5296 175.261 66.3502C175.684 66.1663 176.015 65.9133 176.254 65.5914C176.498 65.2695 176.62 64.8993 176.62 64.4809V64.474C176.62 63.9635 176.472 63.5565 176.178 63.253C175.884 62.9449 175.373 62.7035 174.647 62.5287L173.509 62.2528C173.113 62.1562 172.828 62.0229 172.653 61.8527C172.479 61.6826 172.391 61.4756 172.391 61.2319V61.225C172.391 61.0135 172.446 60.8295 172.557 60.6732C172.672 60.5122 172.835 60.388 173.046 60.3007C173.258 60.2133 173.509 60.1696 173.798 60.1696C174.244 60.1696 174.596 60.2754 174.854 60.4869C175.116 60.6984 175.27 60.979 175.316 61.3285L175.323 61.3767H176.468L176.461 61.2871C176.433 60.887 176.307 60.5283 176.082 60.211C175.861 59.8891 175.555 59.6362 175.164 59.4522C174.778 59.2637 174.323 59.1694 173.798 59.1694C173.283 59.1694 172.826 59.2591 172.426 59.4384C172.03 59.6178 171.72 59.8661 171.494 60.1834C171.274 60.5007 171.163 60.8663 171.163 61.2802V61.2871C171.163 61.8021 171.329 62.2229 171.66 62.5494C171.991 62.8713 172.495 63.1127 173.171 63.2737L174.309 63.5496C174.718 63.6508 175.001 63.7796 175.157 63.9359C175.314 64.0923 175.392 64.2992 175.392 64.5567V64.5636C175.392 64.7798 175.33 64.9683 175.206 65.1293C175.081 65.2856 174.904 65.4075 174.674 65.4949C174.444 65.5776 174.166 65.619 173.84 65.619C173.352 65.619 172.973 65.5202 172.702 65.3224C172.43 65.1201 172.258 64.8396 172.184 64.4809L172.17 64.4119H170.97L170.977 64.474C171.028 64.9016 171.17 65.2764 171.405 65.5983C171.644 65.9202 171.968 66.1709 172.377 66.3502C172.787 66.5296 173.272 66.6192 173.833 66.6192ZM178.156 66.4813H179.356V59.3073H178.156V66.4813ZM178.756 58.0933C178.968 58.0933 179.145 58.0197 179.287 57.8726C179.434 57.7254 179.508 57.5484 179.508 57.3414C179.508 57.1299 179.434 56.9528 179.287 56.8103C179.145 56.6631 178.968 56.5895 178.756 56.5895C178.549 56.5895 178.372 56.6631 178.225 56.8103C178.078 56.9528 178.004 57.1299 178.004 57.3414C178.004 57.5484 178.078 57.7254 178.225 57.8726C178.372 58.0197 178.549 58.0933 178.756 58.0933ZM183.534 66.6192C183.654 66.6192 183.771 66.6123 183.886 66.5985C184.006 66.5893 184.102 66.5801 184.176 66.571V65.5983C184.125 65.6029 184.066 65.6098 183.997 65.619C183.932 65.6236 183.863 65.6259 183.79 65.6259C183.468 65.6259 183.224 65.5592 183.059 65.4259C182.893 65.2879 182.81 65.0281 182.81 64.6464V60.3007H184.176V59.3073H182.81V57.369H181.569V59.3073H180.52V60.3007H181.569V64.6533C181.569 65.3385 181.732 65.8375 182.058 66.1502C182.385 66.4629 182.877 66.6192 183.534 66.6192ZM188.423 66.6192C188.814 66.6192 189.177 66.5664 189.513 66.4606C189.849 66.3502 190.148 66.1985 190.41 66.0053C190.672 65.8076 190.886 65.5799 191.051 65.3224C191.222 65.0649 191.336 64.789 191.396 64.4947L191.41 64.4257H190.231L190.21 64.4878C190.141 64.6947 190.026 64.8786 189.865 65.0396C189.704 65.2005 189.504 65.327 189.265 65.419C189.026 65.511 188.754 65.5569 188.451 65.5569C188.019 65.5569 187.644 65.4627 187.326 65.2741C187.009 65.081 186.763 64.8051 186.588 64.4464C186.418 64.0877 186.333 63.6554 186.333 63.1495V62.6874C186.333 62.1539 186.421 61.7056 186.595 61.3423C186.77 60.9744 187.009 60.6984 187.313 60.5145C187.616 60.326 187.959 60.2317 188.34 60.2317C188.722 60.2317 189.06 60.3214 189.354 60.5007C189.649 60.6755 189.879 60.9445 190.044 61.3078C190.214 61.6711 190.299 62.1309 190.299 62.6874V63.1495L190.907 62.2804H185.719V63.2185H191.5V62.777C191.5 62.0597 191.373 61.4296 191.12 60.887C190.867 60.3443 190.504 59.9236 190.03 59.6247C189.561 59.3211 189 59.1694 188.347 59.1694C187.694 59.1694 187.126 59.328 186.644 59.6453C186.161 59.9581 185.786 60.3972 185.519 60.9629C185.252 61.5239 185.119 62.1746 185.119 62.915V62.9219C185.119 63.6715 185.25 64.3245 185.512 64.8809C185.779 65.4328 186.158 65.8605 186.65 66.164C187.147 66.4675 187.738 66.6192 188.423 66.6192ZM195.375 66.6192C195.922 66.6192 196.377 66.5112 196.74 66.295C197.108 66.0743 197.389 65.7961 197.582 65.4604H197.609V66.4813H198.81V59.3073H197.609V63.5289C197.609 63.9336 197.531 64.29 197.375 64.5981C197.223 64.9016 197.007 65.1385 196.727 65.3086C196.446 65.4742 196.117 65.5569 195.74 65.5569C195.188 65.5569 194.774 65.4029 194.498 65.0948C194.227 64.7821 194.091 64.3337 194.091 63.7497V59.3073H192.891V63.9635C192.891 64.5061 192.988 64.9775 193.181 65.3776C193.379 65.7731 193.661 66.0789 194.029 66.295C194.402 66.5112 194.85 66.6192 195.375 66.6192ZM200.587 66.4813H201.788V61.9976C201.788 61.6573 201.85 61.363 201.974 61.1146C202.103 60.8617 202.282 60.6663 202.512 60.5283C202.747 60.3857 203.018 60.3145 203.326 60.3145C203.473 60.3145 203.604 60.3214 203.719 60.3351C203.839 60.3489 203.922 60.365 203.967 60.3834V59.2177C203.922 59.2085 203.855 59.1993 203.767 59.1901C203.685 59.1763 203.59 59.1694 203.485 59.1694C203.066 59.1694 202.701 59.2867 202.388 59.5212C202.08 59.7557 201.866 60.0707 201.746 60.4662H201.719V59.3073H200.587V66.4813ZM205.221 66.4813H206.421V56.5274H205.221V66.4813ZM208.992 66.5778C209.213 66.5778 209.399 66.502 209.551 66.3502C209.703 66.1985 209.779 66.0122 209.779 65.7915C209.779 65.5707 209.703 65.3845 209.551 65.2327C209.399 65.081 209.213 65.0051 208.992 65.0051C208.772 65.0051 208.585 65.081 208.434 65.2327C208.282 65.3845 208.206 65.5707 208.206 65.7915C208.206 66.0122 208.282 66.1985 208.434 66.3502C208.585 66.502 208.772 66.5778 208.992 66.5778ZM214.06 66.6192C214.603 66.6192 215.086 66.5135 215.509 66.3019C215.937 66.0858 216.284 65.7961 216.551 65.4328C216.822 65.0649 216.99 64.6533 217.054 64.198L217.061 64.1497H215.881L215.868 64.2049C215.766 64.605 215.562 64.9315 215.254 65.1845C214.95 65.4328 214.552 65.5569 214.06 65.5569C213.647 65.5569 213.281 65.4512 212.964 65.2396C212.651 65.0281 212.405 64.7246 212.226 64.3291C212.051 63.9336 211.963 63.4576 211.963 62.9012V62.8943C211.963 62.3517 212.051 61.8826 212.226 61.4871C212.4 61.087 212.644 60.7789 212.957 60.5628C213.269 60.342 213.633 60.2317 214.047 60.2317C214.575 60.2317 214.987 60.3673 215.281 60.6387C215.58 60.91 215.773 61.225 215.861 61.5837L215.875 61.6389H217.047L217.04 61.5837C216.99 61.1744 216.84 60.7858 216.592 60.4179C216.348 60.05 216.013 59.7511 215.585 59.5212C215.157 59.2867 214.644 59.1694 214.047 59.1694C213.384 59.1694 212.805 59.3211 212.308 59.6247C211.812 59.9282 211.425 60.3581 211.149 60.9146C210.874 61.471 210.736 62.1263 210.736 62.8805V62.8874C210.736 63.6462 210.871 64.3061 211.143 64.8671C211.414 65.4236 211.798 65.8559 212.294 66.164C212.796 66.4675 213.384 66.6192 214.06 66.6192ZM221.35 66.6192C222.012 66.6192 222.591 66.4675 223.088 66.164C223.585 65.8605 223.971 65.4305 224.247 64.874C224.527 64.3176 224.668 63.6577 224.668 62.8943V62.8805C224.668 62.1171 224.527 61.4595 224.247 60.9077C223.971 60.3512 223.582 59.9236 223.081 59.6247C222.584 59.3211 222.005 59.1694 221.343 59.1694C220.685 59.1694 220.106 59.3211 219.604 59.6247C219.108 59.9236 218.719 60.3512 218.439 60.9077C218.163 61.4595 218.025 62.1171 218.025 62.8805V62.8943C218.025 63.6531 218.163 64.313 218.439 64.874C218.719 65.4305 219.108 65.8605 219.604 66.164C220.106 66.4675 220.687 66.6192 221.35 66.6192ZM221.357 65.5569C220.933 65.5569 220.563 65.4535 220.246 65.2465C219.933 65.035 219.69 64.7315 219.515 64.336C219.34 63.9359 219.253 63.4553 219.253 62.8943V62.8805C219.253 62.3195 219.34 61.8435 219.515 61.4526C219.69 61.0571 219.933 60.7559 220.246 60.549C220.563 60.3374 220.929 60.2317 221.343 60.2317C221.766 60.2317 222.134 60.3351 222.446 60.5421C222.764 60.749 223.007 61.0502 223.178 61.4457C223.352 61.8412 223.44 62.3195 223.44 62.8805V62.8943C223.44 63.4553 223.352 63.9359 223.178 64.336C223.007 64.7315 222.766 65.035 222.453 65.2465C222.145 65.4535 221.78 65.5569 221.357 65.5569ZM226.094 66.4813H227.294V61.9838C227.294 61.6481 227.365 61.3492 227.508 61.087C227.65 60.8249 227.843 60.618 228.087 60.4662C228.335 60.3099 228.618 60.2317 228.936 60.2317C229.382 60.2317 229.738 60.3627 230.005 60.6249C230.271 60.887 230.405 61.2365 230.405 61.6734V66.4813H231.605V61.9217C231.605 61.5952 231.674 61.3055 231.812 61.0525C231.95 60.795 232.141 60.595 232.385 60.4524C232.628 60.3053 232.909 60.2317 233.226 60.2317C233.7 60.2317 234.065 60.3719 234.323 60.6525C234.585 60.9284 234.716 61.3124 234.716 61.8044V66.4813H235.916V61.5285C235.916 61.0502 235.82 60.6364 235.627 60.2869C235.433 59.9328 235.162 59.6591 234.813 59.466C234.463 59.2683 234.052 59.1694 233.578 59.1694C233.242 59.1694 232.927 59.2246 232.633 59.3349C232.343 59.4453 232.086 59.604 231.86 59.8109C231.64 60.0132 231.463 60.2593 231.329 60.549H231.302C231.2 60.2547 231.053 60.0063 230.86 59.804C230.667 59.5971 230.437 59.4407 230.17 59.3349C229.908 59.2246 229.614 59.1694 229.287 59.1694C228.827 59.1694 228.425 59.2798 228.08 59.5005C227.735 59.7166 227.482 60.0017 227.321 60.3558H227.294V59.3073H226.094V66.4813Z" fill="#202124"/>
<path fill-rule="evenodd" clip-rule="evenodd" d="M127.606 54.5085C127.062 54.5085 126.299 54.7309 125.672 55.3618C125.034 56.0032 124.579 57.0218 124.579 58.5357H125.588C125.588 57.2315 125.974 56.4888 126.387 56.0734C126.811 55.6476 127.309 55.5176 127.606 55.5176C127.903 55.5176 128.402 55.6476 128.825 56.0734C129.238 56.4888 129.624 57.2315 129.624 58.5357H130.633C130.633 57.0218 130.178 56.0032 129.541 55.3618C128.913 54.7309 128.15 54.5085 127.606 54.5085Z" fill="#626365"/>
<rect x="123.57" y="58.5358" width="8.07265" height="7.06356" rx="1.00908" fill="#626365"/>
<g filter="url(#filter0_i_131_2189)">
<path d="M0.461975 5.05449C0.461975 2.26799 2.72088 0.00907898 5.50738 0.00907898H1448.49C1451.28 0.00907898 1453.54 2.26798 1453.54 5.05448V42.3905H0.461975V5.05449Z" fill="#DEE1E7"/>
</g>
<path fill-rule="evenodd" clip-rule="evenodd" d="M78.1612 16.1544C78.1612 11.696 81.7754 8.08173 86.2338 8.08173H312.268C316.726 8.08173 320.341 11.696 320.341 16.1544L320.341 32.2997V36.8405C320.341 36.8449 320.341 36.8493 320.341 36.8537C320.348 39.9128 322.83 42.3905 325.89 42.3905H320.341H303.186H95.3156H78.1612H72.6112C75.6764 42.3905 78.1612 39.9057 78.1612 36.8405V32.2997V16.1544ZM72.6112 42.3905H72.1067V42.3678C72.2729 42.3828 72.4412 42.3905 72.6112 42.3905ZM325.89 42.3905H326.395V42.3678C326.229 42.3828 326.061 42.3905 325.89 42.3905Z" fill="white"/>
<mask id="mask0_131_2189" style="mask-type:alpha" maskUnits="userSpaceOnUse" x="112" y="17" width="179" height="17">
<rect x="112.47" y="17.1635" width="177.598" height="16.1453" fill="#C4C4C4"/>
</mask>
<g mask="url(#mask0_131_2189)">
<path d="M116.857 26.1276H119.364C119.9 26.1276 120.373 26.0113 120.783 25.7787C121.193 25.5461 121.514 25.2229 121.747 24.809C121.983 24.3952 122.102 23.9182 122.102 23.3782V23.3664C122.102 22.8264 121.983 22.3514 121.747 21.9414C121.514 21.5315 121.193 21.2122 120.783 20.9836C120.373 20.755 119.9 20.6407 119.364 20.6407H116.857V21.5867H119.092C119.703 21.5867 120.176 21.7444 120.511 22.0597C120.846 22.375 121.014 22.8145 121.014 23.3782V23.39C121.014 23.9498 120.846 24.3893 120.511 24.7085C120.176 25.0239 119.703 25.1815 119.092 25.1815H116.857V26.1276ZM116.325 29.1725H117.389V20.6407H116.325V29.1725ZM124.613 29.2908C124.889 29.2908 125.149 29.2455 125.393 29.1548C125.642 29.0602 125.864 28.9301 126.061 28.7646C126.258 28.5951 126.416 28.398 126.534 28.1733H126.558V29.1725H127.587V24.9214C127.587 24.5114 127.49 24.1567 127.297 23.8571C127.104 23.5536 126.83 23.3191 126.475 23.1535C126.124 22.988 125.707 22.9052 125.222 22.9052C124.741 22.9052 124.325 22.988 123.974 23.1535C123.623 23.3151 123.347 23.5339 123.146 23.8098C122.949 24.0857 122.835 24.3932 122.803 24.7322L122.798 24.7972H123.791L123.803 24.744C123.862 24.4681 124.012 24.2454 124.252 24.0759C124.496 23.9024 124.816 23.8157 125.21 23.8157C125.64 23.8157 125.971 23.9241 126.203 24.1409C126.44 24.3538 126.558 24.6474 126.558 25.0219V26.8371C126.558 27.1327 126.481 27.3988 126.327 27.6353C126.178 27.8718 125.973 28.059 125.712 28.197C125.456 28.331 125.167 28.398 124.843 28.398C124.473 28.398 124.175 28.3113 123.951 28.1378C123.73 27.9644 123.619 27.7299 123.619 27.4342V27.4224C123.619 27.1347 123.732 26.9041 123.956 26.7306C124.185 26.5572 124.504 26.4587 124.914 26.435L127.072 26.3049V25.5067L124.796 25.6368C124.09 25.6762 123.543 25.8536 123.152 26.1689C122.762 26.4803 122.567 26.8982 122.567 27.4224V27.4342C122.567 27.8048 122.652 28.1299 122.821 28.4098C122.995 28.6897 123.235 28.9065 123.543 29.0602C123.85 29.2139 124.207 29.2908 124.613 29.2908ZM131.677 31.3602C132.232 31.3602 132.713 31.2616 133.119 31.0646C133.525 30.8714 133.839 30.5975 134.059 30.2427C134.28 29.8919 134.39 29.478 134.39 29.0011V23.0234H133.362V24.0641H133.338C133.212 23.8354 133.052 23.6344 132.859 23.461C132.67 23.2875 132.453 23.1516 132.209 23.053C131.964 22.9545 131.696 22.9052 131.405 22.9052C130.884 22.9052 130.427 23.0353 130.033 23.2954C129.639 23.5556 129.329 23.9222 129.105 24.3952C128.884 24.8642 128.774 25.418 128.774 26.0566V26.0625C128.774 26.7011 128.882 27.2588 129.099 27.7358C129.319 28.2088 129.625 28.5773 130.015 28.8414C130.409 29.1016 130.865 29.2317 131.381 29.2317C131.677 29.2317 131.949 29.1863 132.197 29.0957C132.449 29.0011 132.672 28.871 132.865 28.7054C133.058 28.5399 133.216 28.3428 133.338 28.1142H133.362V28.9006C133.362 29.3775 133.214 29.7539 132.918 30.0299C132.623 30.3097 132.205 30.4496 131.665 30.4496C131.247 30.4496 130.896 30.3846 130.612 30.2545C130.332 30.1284 130.143 29.955 130.045 29.7342L130.021 29.681H128.986L128.998 29.7342C129.065 30.0377 129.213 30.3117 129.442 30.5561C129.674 30.8044 129.978 30.9995 130.352 31.1414C130.731 31.2873 131.172 31.3602 131.677 31.3602ZM131.606 28.3211C131.243 28.3211 130.928 28.2305 130.66 28.0491C130.392 27.8639 130.185 27.6037 130.039 27.2687C129.897 26.9297 129.826 26.5276 129.826 26.0625V26.0566C129.826 25.5994 129.897 25.2032 130.039 24.8682C130.185 24.5331 130.392 24.2749 130.66 24.0936C130.928 23.9084 131.243 23.8157 131.606 23.8157C131.953 23.8157 132.258 23.9084 132.522 24.0936C132.786 24.2789 132.991 24.539 133.137 24.8741C133.287 25.2091 133.362 25.6033 133.362 26.0566V26.0625C133.362 26.5158 133.287 26.912 133.137 27.2509C132.991 27.5899 132.786 27.854 132.522 28.0432C132.262 28.2285 131.956 28.3211 131.606 28.3211ZM138.433 29.2908C138.768 29.2908 139.079 29.2455 139.367 29.1548C139.655 29.0602 139.911 28.9301 140.136 28.7646C140.361 28.5951 140.544 28.4 140.686 28.1792C140.832 27.9585 140.93 27.722 140.981 27.4697L140.993 27.4106H139.982L139.964 27.4638C139.905 27.6412 139.807 27.7988 139.669 27.9368C139.531 28.0748 139.359 28.1832 139.154 28.262C138.949 28.3408 138.717 28.3802 138.457 28.3802C138.086 28.3802 137.765 28.2994 137.493 28.1378C137.221 27.9723 137.01 27.7358 136.86 27.4283C136.714 27.1209 136.642 26.7503 136.642 26.3168V25.9206C136.642 25.4634 136.716 25.0791 136.866 24.7677C137.016 24.4523 137.221 24.2158 137.481 24.0581C137.741 23.8965 138.035 23.8157 138.362 23.8157C138.689 23.8157 138.979 23.8926 139.231 24.0463C139.483 24.1961 139.681 24.4267 139.822 24.7381C139.968 25.0495 140.041 25.4437 140.041 25.9206V26.3168L140.562 25.5718H136.115V26.3759H141.07V25.9975C141.07 25.3826 140.962 24.8426 140.745 24.3774C140.528 23.9123 140.217 23.5516 139.811 23.2954C139.409 23.0353 138.928 22.9052 138.368 22.9052C137.808 22.9052 137.321 23.0412 136.908 23.3132C136.494 23.5812 136.172 23.9576 135.944 24.4425C135.715 24.9234 135.601 25.4811 135.601 26.1157V26.1216C135.601 26.7641 135.713 27.3239 135.938 27.8008C136.167 28.2738 136.492 28.6404 136.913 28.9006C137.339 29.1607 137.846 29.2908 138.433 29.2908ZM147.275 29.1725H148.339V21.5985H151.029V20.6407H144.585V21.5985H147.275V29.1725ZM151.944 29.1725H152.973V23.0234H151.944V29.1725ZM152.459 21.9828C152.64 21.9828 152.792 21.9198 152.914 21.7936C153.04 21.6675 153.103 21.5157 153.103 21.3384C153.103 21.157 153.04 21.0053 152.914 20.8831C152.792 20.757 152.64 20.6939 152.459 20.6939C152.281 20.6939 152.129 20.757 152.003 20.8831C151.877 21.0053 151.814 21.157 151.814 21.3384C151.814 21.5157 151.877 21.6675 152.003 21.7936C152.129 21.9198 152.281 21.9828 152.459 21.9828ZM156.554 29.2908C156.657 29.2908 156.757 29.2849 156.856 29.273C156.958 29.2652 157.041 29.2573 157.104 29.2494V28.4157C157.061 28.4197 157.01 28.4256 156.951 28.4335C156.895 28.4374 156.836 28.4394 156.773 28.4394C156.497 28.4394 156.288 28.3822 156.146 28.2679C156.005 28.1497 155.934 27.9269 155.934 27.5998V23.8749H157.104V23.0234H155.934V21.362H154.869V23.0234H153.971V23.8749H154.869V27.6057C154.869 28.193 155.009 28.6207 155.289 28.8887C155.569 29.1568 155.991 29.2908 156.554 29.2908ZM158.445 29.1725H159.474V20.6407H158.445V29.1725ZM163.575 29.2908C163.91 29.2908 164.222 29.2455 164.509 29.1548C164.797 29.0602 165.053 28.9301 165.278 28.7646C165.503 28.5951 165.686 28.4 165.828 28.1792C165.974 27.9585 166.072 27.722 166.124 27.4697L166.135 27.4106H165.124L165.107 27.4638C165.047 27.6412 164.949 27.7988 164.811 27.9368C164.673 28.0748 164.502 28.1832 164.297 28.262C164.092 28.3408 163.859 28.3802 163.599 28.3802C163.228 28.3802 162.907 28.2994 162.635 28.1378C162.363 27.9723 162.152 27.7358 162.002 27.4283C161.857 27.1209 161.784 26.7503 161.784 26.3168V25.9206C161.784 25.4634 161.859 25.0791 162.008 24.7677C162.158 24.4523 162.363 24.2158 162.623 24.0581C162.883 23.8965 163.177 23.8157 163.504 23.8157C163.831 23.8157 164.121 23.8926 164.373 24.0463C164.626 24.1961 164.823 24.4267 164.965 24.7381C165.111 25.0495 165.183 25.4437 165.183 25.9206V26.3168L165.704 25.5718H161.257V26.3759H166.212V25.9975C166.212 25.3826 166.104 24.8426 165.887 24.3774C165.67 23.9123 165.359 23.5516 164.953 23.2954C164.551 23.0353 164.07 22.9052 163.51 22.9052C162.95 22.9052 162.464 23.0412 162.05 23.3132C161.636 23.5812 161.315 23.9576 161.086 24.4425C160.857 24.9234 160.743 25.4811 160.743 26.1157V26.1216C160.743 26.7641 160.855 27.3239 161.08 27.8008C161.309 28.2738 161.634 28.6404 162.056 28.9006C162.481 29.1607 162.988 29.2908 163.575 29.2908Z" fill="#202124"/>
</g>
<rect x="259.796" y="15.1453" width="30.2724" height="20.1816" fill="url(#paint0_linear_131_2189)"/>
<line x1="307.896" y1="21.0879" x2="300.047" y2="28.9367" stroke="#3C4043" stroke-width="1.00908" stroke-linejoin="round"/>
<line x1="300.047" y1="21.0879" x2="307.896" y2="28.9367" stroke="#3C4043" stroke-width="1.00908" stroke-linejoin="round"/>
<circle cx="58.9887" cy="21.1998" r="5.54994" fill="#00D641" stroke="#12B829" stroke-width="1.00908"/>
<circle cx="38.807" cy="21.1998" r="5.54994" fill="#FFBD00" stroke="#E79F13" stroke-width="1.00908"/>
<circle cx="18.6254" cy="21.1998" r="5.54994" fill="#FF3B47" stroke="#EF1320" stroke-width="1.00908"/>
<line x1="342.54" y1="18.1725" x2="342.54" y2="32.2997" stroke="#3C4043" stroke-width="2.01816" stroke-linejoin="round"/>
<line x1="335.477" y1="25.2361" x2="349.604" y2="25.2361" stroke="#3C4043" stroke-width="2.01816" stroke-linejoin="round"/>
</g>
<defs>
<filter id="filter0_i_131_2189" x="0.461975" y="0.00907898" width="1453.08" height="42.3814" filterUnits="userSpaceOnUse" color-interpolation-filters="sRGB">
<feFlood flood-opacity="0" result="BackgroundImageFix"/>
<feBlend mode="normal" in="SourceGraphic" in2="BackgroundImageFix" result="shape"/>
<feColorMatrix in="SourceAlpha" type="matrix" values="0 0 0 0 0 0 0 0 0 0 0 0 0 0 0 0 0 0 127 0" result="hardAlpha"/>
<feOffset dy="1.00908"/>
<feComposite in2="hardAlpha" operator="arithmetic" k2="-1" k3="1"/>
<feColorMatrix type="matrix" values="0 0 0 0 0.94902 0 0 0 0 0.952941 0 0 0 0 0.960784 0 0 0 1 0"/>
<feBlend mode="normal" in2="shape" result="effect1_innerShadow_131_2189"/>
</filter>
<linearGradient id="paint0_linear_131_2189" x1="290.068" y1="25.2361" x2="259.796" y2="25.2361" gradientUnits="userSpaceOnUse">
<stop stop-color="white"/>
<stop offset="1" stop-color="white" stop-opacity="0"/>
</linearGradient>
<clipPath id="clip0_131_2189">
<rect width="385" height="80" fill="white"/>
</clipPath>
</defs>
</svg>
