<svg xmlns="http://www.w3.org/2000/svg" width="100%" height="100%" viewBox="0 0 24 24" fit="" preserveAspectRatio="xMidYMid meet" focusable="false">
    <g fill="#4A4A4A" fill-rule="evenodd">
        <path fill-rule="nonzero" d="M7.5 19.102c0 2.705 2.239 4.898 5 4.898s5-2.193 5-4.898a4.84 4.84 0 0 0-1.615-3.605l-.677.72a3.87 3.87 0 0 1 1.292 2.885c0 2.164-1.79 3.918-4 3.918s-4-1.754-4-3.918c0-1.162.514-2.173 1.213-2.496l.287-.132V3.918c0-1.76.749-2.938 2.5-2.938 1.929 0 2.5.578 2.5 1.959v.49h1v-.49C16 1.024 14.989 0 12.5 0 10.071 0 9 1.685 9 3.918v11.96c-.924.595-1.5 1.851-1.5 3.224z"></path>
        <path d="M12.5 5h3v1h-3zM12.5 8h3v1h-3zM12.5 11h3v1h-3zM12.5 14h3v1h-3z"></path>
    </g>
</svg>