<svg width="56" height="56" viewBox="0 0 56 56" fill="none" xmlns="http://www.w3.org/2000/svg">
<g clip-path="url(#clip0_964_22529)">
<path d="M41.5 34.4528C36.3414 34.4528 31.6632 37.2751 28.2113 41.8593C27.9296 42.2349 27.9296 42.7596 28.2113 43.1352C31.6632 47.7249 36.3414 50.5473 41.5 50.5473C46.6586 50.5473 51.3368 47.7249 54.7887 43.1407C55.0704 42.7651 55.0704 42.2404 54.7887 41.8648C51.3368 37.2751 46.6586 34.4528 41.5 34.4528ZM41.8701 48.1668C38.4457 48.3822 35.6178 45.5598 35.8332 42.13C36.01 39.3021 38.3021 37.01 41.1299 36.8332C44.5543 36.6178 47.3822 39.4402 47.1668 42.8701C46.9845 45.6924 44.6924 47.9845 41.8701 48.1668ZM41.6988 45.5488C39.8541 45.6648 38.3297 44.1459 38.4512 42.3012C38.5451 40.7768 39.7823 39.5451 41.3067 39.4457C43.1514 39.3297 44.6758 40.8486 44.5543 42.6933C44.4549 44.2232 43.2177 45.4549 41.6988 45.5488Z" fill="#757575"/>
</g>
<path fill-rule="evenodd" clip-rule="evenodd" d="M33.2232 26.4748C33.5243 26.2083 33.9184 26.0712 34.32 26.0931C37.2511 26.2518 39.9358 27.2049 42.124 28.7122C40.823 29.0648 39.5733 29.5423 38.3887 30.131C37.2663 29.6493 36.0382 29.3262 34.7413 29.1963C32.4576 31.0057 29.5573 31.9951 26.5 31.9951C23.4427 31.9951 20.5424 31.0057 18.2587 29.1961C12.6131 29.7618 8.2721 33.987 8.2721 39.0344V48.9375H27.0046C27.0264 49.9793 27.1259 51.0019 27.2976 52H8.06107C6.48848 52 5.20959 50.784 5.20959 49.2893V39.0344C5.20959 32.1866 11.1265 26.5021 18.68 26.093C19.0815 26.0715 19.4754 26.2086 19.7769 26.4747C21.5701 28.0597 23.9578 28.9326 26.5 28.9326C29.0422 28.9326 31.4299 28.0597 33.2232 26.4748ZM32.7309 23.5403C30.8865 24.7726 28.7182 25.4304 26.5 25.4304C23.5266 25.427 20.6759 24.2444 18.5734 22.1418C16.4708 20.0393 15.2881 17.1887 15.2847 14.2152C15.2847 11.9971 15.9425 9.8287 17.1748 7.98435C18.4071 6.13999 20.1587 4.70249 22.208 3.85362C24.2574 3.00475 26.5124 2.78264 28.6879 3.21537C30.8635 3.6481 32.8619 4.71624 34.4304 6.28472C35.9989 7.8532 37.067 9.85157 37.4998 12.0271C37.9325 14.2027 37.7104 16.4577 36.8616 18.507C36.0127 20.5563 34.5752 22.3079 32.7309 23.5403ZM31.0294 7.43646C29.6887 6.54063 28.1125 6.06248 26.5 6.06248C24.3385 6.06491 22.2662 6.92464 20.7378 8.45305C19.2094 9.98146 18.3497 12.0537 18.3472 14.2152C18.3472 15.8277 18.8254 17.4039 19.7212 18.7447C20.6171 20.0854 21.8904 21.1303 23.3801 21.7474C24.8698 22.3645 26.509 22.5259 28.0905 22.2113C29.672 21.8968 31.1247 21.1203 32.2649 19.9801C33.4051 18.8399 34.1815 17.3872 34.4961 15.8058C34.8107 14.2243 34.6492 12.585 34.0322 11.0953C33.4151 9.60559 32.3702 8.3323 31.0294 7.43646Z" fill="#757575"/>
<defs>
<clipPath id="clip0_964_22529">
<rect width="27" height="27" fill="white" transform="translate(28 29)"/>
</clipPath>
</defs>
</svg>
