<svg fill="none" viewBox="0 0 310 103" width="125" xmlns="http://www.w3.org/2000/svg"><path d="m102 61.8c-2.7 2.1-6 3.2-9.3 3.2-8.3 0-15.1-6.6-15.1-14.7s6.8-14.7 15.1-14.7c3.3 0 6.7 1.1 9.3 3.2.2.2.6.2.8 0 .2-.3.2-.7 0-.9-2.8-2.2-6.3-3.4-10.1-3.4-9 0-16.3 7.1-16.3 15.8s7.3 15.8 16.3 15.8c3.6 0 7.2-1.2 10.1-3.4.2-.2.2-.5 0-.8-.2-.2-.6-.2-.8-.1z" fill="#75cccf"/><path d="m101.8 61.4001c-2.7 2-5.9 3.2-9 3.2-8.1 0-14.6-6.4-14.6-14.2s6.6-14.2 14.6-14.2c3.2 0 6.4 1.1 9 3.1.5.3 1.1.3 1.5-.1.3-.5.3-1.2-.1-1.6-2.9-2.3-6.6-3.5-10.4-3.5-9.3 0-16.8 7.3-16.8 16.3 0 8.9 7.5 16.3 16.8 16.3 3.7 0 7.4-1.3 10.4-3.5.4-.4.4-1 .1-1.5-.4-.5-1.1-.6-1.5-.3zm1 1.4c-2.9 2.2-6.5 3.4-10.1 3.4-9-.1-16.3-7.2-16.3-15.8 0-8.7 7.3-15.8 16.3-15.8 3.7 0 7.3 1.2 10.1 3.4.2.2.2.6 0 .9-.2.2-.5.2-.8 0-2.7-2.1-6-3.2-9.3-3.2-8.3 0-15.1 6.6-15.1 14.7s6.8 14.7 15.1 14.7c3.3 0 6.6-1.2 9.3-3.2.2-.1.6-.1.8.1.2.3.2.6 0 .8z" fill="#75cccf"/><path d="m115.6 20.8c-.4 0-.6.3-.6.6v44.2001c0 .3.2.5999.6.5999.3 0 .5-.2999.5-.5999v-44.2001c.1-.3-.1-.6-.5-.6z" fill="#75cccf"/><path d="m115.6 20.3c-.6 0-1.1.5-1.1 1.1v44.2001c0 .6.5 1.0999 1.1 1.0999s1-.4999 1-1.0999v-44.2001c.1-.6-.4-1.1-1-1.1zm.6 45.3001c0 .3-.2.5999-.5.5999-.4 0-.6-.2999-.6-.5999v-44.2001c0-.3.2-.6.6-.6.3 0 .5.3.5.6z" fill="#75cccf"/><path d="m145.3 34.6001c-8.5 0-15.2 6.9-15.4 15.8.1 8.7 6.9 15.7 15.4 15.8 5 0 9.9-2.7 12.7-7.2.1-.1.1-.3.1-.5 0-.1-.1-.2-.2-.3-.3-.1-.6-.2-.8.1-2.6 4.2-7 6.7-11.8 6.7-7.8-.1-14.2-6.7-14.2-14.7v-.4h28.9c.3 0 .5-.3.5-.6v-.2c-.7-8.3-7.2-14.5-15.2-14.5zm-14.2 14.3v-.3c.9-7.3 7-12.8 14.2-12.8 7.1 0 13.2 5.5 14 12.8v.3z" fill="#75cccf"/><path d="m145.3 34.1001c-8.8 0-15.7 7.2-15.9 16.3.1 9 7.1 16.2 15.9 16.3 5.2 0 10.2-2.8 13.1-7.4.2-.2.2-.6.2-.8-.1-.3-.2-.5-.5-.6-.6-.3-1.2-.2-1.5.3-2.5 4-6.7 6.4-11.3 6.4-7.6-.1-13.7-6.4-13.7-14.1h28.4c.5 0 1-.5 1-1v-.3c-.7-8.7-7.4-15.1-15.7-15.1zm14.6 15.8h-28.9v.4c0 8 6.4 14.6 14.2 14.7 4.8 0 9.2-2.5 11.8-6.7.2-.3.6-.2.8-.1.1.1.2.2.2.3 0 .2 0 .3-.1.5-2.9 4.4-7.7 7.2-12.7 7.2-8.5-.1-15.2-7.1-15.4-15.8.1-8.9 6.9-15.8 15.4-15.8 8.1 0 14.6 6.3 15.2 14.6v.2c0 .2-.2.5-.5.5z" fill="#75cccf"/><path d="m145.3 35.8c-7.2 0-13.3 5.5001-14.2 12.8001v.2999h28.2v-.2999c-.9-7.3-6.9-12.8001-14-12.8001zm-13.7 12.6c1-6.9 6.8-12.1 13.6-12.1s12.5 5.2 13.5 12.1z" fill="#75cccf"/><path d="m192.7 34.8001c-.1-.1-.3-.1-.4 0s-.2.2-.3.3l-12.3 29.1-12.3-29.1c-.1-.2-.2-.3-.3-.3-.1-.1-.3 0-.4 0-.1.1-.3.2-.3.3s-.1.2 0 .4l12.8 30.4c.1.2.3.3.4.4h.2c.1 0 .2 0 .4-.3l.1-.1v-.1l12.8-30.3c.1-.1.1-.2 0-.3 0-.2-.2-.4-.4-.4z" fill="#75cccf"/><path d="m192.9 34.3001c-.3-.1-.5-.1-.8 0s-.5.3-.5.6l-11.8 28-11.8-28c-.1-.3-.3-.5-.6-.6s-.5-.1-.8 0c-.2.1-.5.3-.6.6s-.1.6 0 .8l12.8 30.4c.2.3.5.6.7.7h.3c.2 0 .5-.1.8-.4.1-.1.2-.2.2-.4l12.8-30.3c.1-.2.1-.5 0-.7-.1-.3-.3-.6-.7-.7zm.2 1.2-12.8 30.3v.1s0 .1-.1.1c-.2.2-.3.3-.4.3h-.2c-.1-.1-.3-.2-.4-.4l-12.8-30.4c-.1-.1 0-.3 0-.4.1-.1.2-.3.3-.3.2-.1.3-.1.4 0s.2.2.3.3l12.3 29.1 12.3-29.1c0-.2.1-.3.3-.3.1-.1.2 0 .4 0 .2.1.4.2.4.4.1.1.1.2 0 .3z" fill="#75cccf"/><path d="m216.5 34.6001c-8.5 0-15.2 6.9-15.4 15.8.1 8.7 6.9 15.7 15.4 15.8 5 0 9.9-2.7 12.7-7.2.1-.1.1-.3.1-.5 0-.1-.1-.2-.2-.3-.3-.1-.6-.2-.8.1-2.6 4.2-7 6.7-11.8 6.7-7.8-.1-14.2-6.7-14.2-14.7v-.4h28.8c.3 0 .5-.3.5-.6v-.2c-.5-8.3-7-14.5-15.1-14.5zm-14.2 14.3v-.3c.9-7.3 7-12.8 14.2-12.8 7.1 0 13.2 5.5 14 12.8v.3z" fill="#75cccf"/><path d="m216.5 34.1001c-8.8 0-15.7 7.2-15.9 16.3.1 9 7.1 16.2 15.9 16.3 5.2 0 10.2-2.8 13.1-7.4.2-.2.2-.6.2-.8-.1-.3-.2-.5-.5-.6-.6-.3-1.2-.2-1.5.3-2.5 4-6.7 6.4-11.3 6.4-7.5-.1-13.7-6.4-13.7-14.1h28.3c.5 0 1-.5 1-1v-.3c-.5-8.7-7.3-15.1-15.6-15.1zm14.6 15.8h-28.8v.4c0 8 6.4 14.6 14.2 14.7 4.8 0 9.2-2.5 11.8-6.7.2-.3.6-.2.8-.1.1.1.2.2.2.3 0 .2 0 .3-.1.5-2.9 4.4-7.7 7.2-12.7 7.2-8.5-.1-15.2-7.1-15.4-15.8.1-8.9 6.9-15.8 15.4-15.8 8.1 0 14.6 6.3 15.2 14.6v.2c-.1.2-.3.5-.6.5z" fill="#75cccf"/><path d="m216.5 35.8c-7.2 0-13.3 5.5001-14.2 12.8001v.2999h28.2v-.2999c-.8-7.3-6.9-12.8001-14-12.8001zm-13.6 12.6c1-6.9 6.8-12.1 13.6-12.1s12.5 5.2 13.5 12.1z" fill="#75cccf"/><path d="m256.6 34.6001c-6.1 0-10.2 4.3-12.6 7.8-.7 1.1-1.4 2.3-2 3.8l-.5 1.1v-12.1c0-.1 0-.6-.5-.6-.2 0-.5.3-.5.6v15.1.2.1 15c0 .4.3.6.5.6s.5-.1.5-.6v-15.1s.3-.8.8-2.2c.9-2.3 2.5-5.5 4.8-8 1.8-2 5-4.5 9.5-4.5.4 0 .6-.3.6-.6s-.2-.6-.6-.6z" fill="#75cccf"/><path d="m256.6 34.1001c-5 0-9.5 2.8-13 8.1-.6.9-1.1 1.8-1.6 2.8v-9.8c0-.6-.4-1.1-1-1.1-.5 0-1 .5-1 1.1v15c-.1.2-.1.3 0 .5v15c0 .7.5 1.1 1 1.1.6 0 1-.4 1-1.1v-15c.1-.2.3-.9.8-2.2.9-2.2 2.5-5.4 4.7-7.9 1.8-2 4.8-4.3 9.1-4.3.6 0 1.1-.5 1.1-1.1s-.5-1.1-1.1-1.1zm0 1.7c-4.6 0-7.7 2.4-9.5 4.5-2.2 2.6-3.8 5.8-4.8 8-.5 1.4-.8 2.2-.8 2.2v15.1c0 .5-.3.6-.5.6-.3 0-.5-.2-.5-.6v-15-.1c0-.1 0-.1 0-.2v-15.1c0-.3.3-.6.5-.6.5 0 .5.5.5.6v12.1l.5-1.1c.6-1.4 1.3-2.7 2-3.8 2.4-3.6 6.5-7.8 12.6-7.8.4 0 .6.3.6.6s-.2.6-.6.6z" fill="#75cccf"/><path d="m268.6 20.8c-.4 0-.6.3-.6.6v44.2001c0 .3.2.5999.6.5999.3 0 .5-.2999.5-.5999v-44.2001c0-.3-.2-.6-.5-.6z" fill="#75cccf"/><path d="m268.6 20.3c-.6 0-1.1.5-1.1 1.1v44.2001c0 .6.5 1.0999 1.1 1.0999s1-.4999 1-1.0999v-44.2001c0-.6-.4-1.1-1-1.1zm.5 45.3001c0 .3-.2.5999-.5.5999-.4 0-.6-.2999-.6-.5999v-44.2001c0-.3.2-.6.6-.6.3 0 .5.3.5.6z" fill="#75cccf"/><path d="m308.6 34.6001h-.2c-.1 0-.2 0-.3.1l-.2.2c0 .1-.1.2-.1.2v.1 18.8c-.3 6.2-5.3 11-11.3 11-6.4 0-11.5-5.1-11.5-11.5v-18.3c0-.3-.3-.6-.5-.6-.4 0-.6.3-.6.6v18.3c0 7 5.7 12.6 12.7 12.6 4.6 0 8.8-2.5 10.9-6.4l.5-.9v5.9c0 7.6-6.1 13.7-13.7 13.7-2.1 0-4-.5-6-1.5 0 0-.1 0-.2 0s-.2 0-.3.1c-.1 0-.2.1-.2.2-.1.2-.1.4-.1.5s.1.2.3.3c2.1 1 4.2 1.6 6.5 1.6 8.2 0 14.8-6.7 14.8-14.8v-29.5c0-.1 0-.3-.1-.3z" fill="#75cccf"/><path d="m309.2 34.5c0-.1-.1-.1-.2-.2l-.2-.2h-.1s-.1-.1-.2-.1h-.1c-.3 0-.4.1-.6.2l-.2.2c-.1 0-.2.1-.2.2-.1.2-.1.3-.1.4v18.9c-.3 5.9-5 10.5-10.8 10.5-6.1 0-11-4.9-11-11v-18.3c0-.6-.5-1.1-1-1.1-.6 0-1.1.5-1.1 1.1v18.4c0 7.2 5.9 13.1 13.2 13.1 4.5 0 8.5-2.2 10.8-5.9v3.9c0 7.3-5.9 13.2-13.2 13.2-2 0-3.9-.5-5.8-1.4-.3-.1-.6-.1-.8 0s-.4.3-.5.5c-.2.3-.2.6-.1.9s.3.5.6.6c2.1 1.1 4.4 1.6 6.7 1.6 8.5 0 15.3-6.9 15.3-15.3v-29.5c-.1-.3-.2-.5-.4-.7zm-.2 30.1c0 8.2-6.7 14.8-14.8 14.8-2.2 0-4.4-.5-6.5-1.6-.1-.1-.2-.2-.3-.3 0-.1 0-.3.1-.5 0-.1.1-.2.2-.2s.2-.1.3-.1h.2c2 1 3.9 1.5 6 1.5 7.6 0 13.7-6.1 13.7-13.7v-5.9l-.5.9c-2.1 4-6.3 6.4-10.9 6.4-7 0-12.7-5.7-12.7-12.6v-18.3c0-.3.2-.6.6-.6.2 0 .5.3.5.6v18.5c0 6.3 5.2 11.5 11.5 11.5 6.1 0 11.1-4.8 11.3-11v-18.8-.1s.1-.1.1-.2l.2-.2c.1 0 .2-.1.3-.1h.1.1l.2.2c.1.1.1.2.1.3v29.5z" fill="#75cccf"/><path d="m20.0483 83.2c1.1 1.1 2.6 1.7 4.2 1.8h12.7.1c1.6 0 3-.6 4.1-1.7s1.7-2.6 1.8-4.2v-4.3c0-8.1 3.3-15.9 9.1-21.4 6.2-5.9 9.6-13.8 9.7-22.4 0-8.3-3.2-16-9-21.9s-13.6-9.1-21.8-9.1c-1.2 0-2.4.100001-3.5.200001-14.8 1.599999-26.599983 13.999999-27.3999834 28.899999-.4999996 9 2.9000034 17.7 9.3000034 24 5.89998 5.7 9.19998 13.6 9.19998 21.6v4.3c-.2 1.6.4 3.1 1.5 4.2zm-9.9-31.1c-6.09999-6-9.299988-14.3-8.79999-22.8.8-14.2 12.09999-26 26.09999-27.5 1.1-.1 2.3-.2 3.4-.2 16.2 0 29.4 13.3 29.4 29.5 0 8.1-3.3 15.7-9.2 21.3-6.1 5.8-9.6 13.9-9.6 22.5v4.3c0 1.2-.5 2.3-1.3 3.2-.8.8-1.9 1.3-3.1 1.3 0 0 0 0-.1 0h-12.7c-1.2 0-2.3-.5-3.1-1.3s-1.3-2-1.3-3.2v-4.3c0-8.5-3.5-16.8-9.7-22.8z" fill="#75cccf"/><path d="m19.6483 91.1 21.8.1c.3 0 .4-.1.5-.2s.2-.3.2-.5c0-.3-.1-.4-.2-.5s-.3-.2-.5-.2l-21.8-.1c-.4 0-.7.3-.7.7s.3.7.7.7z" fill="#f99c23"/><path d="m19.6483 96.7 21.8.1c.4 0 .7-.3.7-.7 0-.3-.1-.4-.2-.5s-.3-.2-.5-.2l-21.8-.1c-.4 0-.7.3-.7.7-.1.4.3.7.7.7z" fill="#f99c23"/><path d="m25.0483 100.9c-.3 0-.4.1-.5.2s-.2.3-.2.5c0 .3.1.4.2.5s.3.2.5.2h10.9c.2 0 .4-.1.5-.2s.2-.3.2-.5c0-.4-.3-.7-.7-.7z" fill="#f99c23"/><path d="m15.5483 36.2999-7.39998-2 .19999-.5 6.69999 1.7001 1.4-5.9001-5.9-.8v-.5999l6.6.8999z" fill="#75cccf"/><path d="m22.4483 38.2-7.2-2 .1-.6 7 1.9 3.8-2.5-2.7-5.2-7-.1 1.4-5.8-4.2-.4.1-.6 4.8.5-1.4 5.7 6.7.2 3 5.9z" fill="#75cccf"/><path d="m17.0687 29.1393-.4602.385 2.5664 3.068.4602-.385z" fill="#75cccf"/><path d="m32.1483 31.5-8.6-1.7001.1-.5 7.9 1.5.2-5.8999-5.6-5.6001-4.5.9001 1.6 4.2-.5.1999-1.9-4.8 5.5-1.0999 6 5.8999z" fill="#75cccf"/><path d="m28.5483 47.3-.8-7 4.8-3.3-1-5.8.6-.1 1 6.1-4.8 3.4.8 6.6z" fill="#75cccf"/><path d="m34.9483 43.9001-2.5-7.1001 5 .3 1.2-6.5 5-4.6-.2-4.4-5.2 1.3001-3.9-2.7.3-.4001 3.7 2.5 5.6-1.3999.3 5.3-5.1 4.7-1.2 6.8999-4.7-.3999 2.2 6.3999z" fill="#75cccf"/><path d="m48.3663 24.4438-4.5035 1.3451.1717.575 4.5035-1.3452z" fill="#75cccf"/><path d="m42.8483 43.9h-.5l.3-5.9 5.6 3.2 1.8-4.2-4.3-5.5 6.5-2 .1.5-5.6 1.8 4 5.1-2.2 5.2-5.4-3.2z" fill="#75cccf"/><g fill="#f99c23"><path d="m10.5483 30.7999c1.2703 0 2.3-1.0297 2.3-2.2999 0-1.2703-1.0297-2.3-2.3-2.3-1.27023 0-2.29998 1.0297-2.29998 2.3 0 1.2702 1.02975 2.2999 2.29998 2.2999z"/><path d="m43.7483 23.5c1.2703 0 2.3-1.0297 2.3-2.3 0-1.2702-1.0297-2.3-2.3-2.3-1.2702 0-2.3 1.0298-2.3 2.3 0 1.2703 1.0298 2.3 2.3 2.3z"/><path d="m15.3483 38.4c1.3807 0 2.5-1.1193 2.5-2.5s-1.1193-2.5-2.5-2.5-2.5 1.1193-2.5 2.5 1.1193 2.5 2.5 2.5z"/><path d="m26.2483 21.5c1.3807 0 2.5-1.1193 2.5-2.5s-1.1193-2.5-2.5-2.5-2.5 1.1193-2.5 2.5 1.1193 2.5 2.5 2.5z"/><path d="m38.9483 34c1.7673 0 3.2-1.4327 3.2-3.2s-1.4327-3.2-3.2-3.2-3.2 1.4327-3.2 3.2 1.4327 3.2 3.2 3.2z"/><path d="m23.6483 32.6c1.7121 0 3.1-1.3879 3.1-3.1s-1.3879-3.1-3.1-3.1-3.1 1.3879-3.1 3.1 1.3879 3.1 3.1 3.1z"/><path d="m35.2483 47.3001c1.933 0 3.5-1.5671 3.5-3.5001 0-1.9329-1.567-3.5-3.5-3.5s-3.5 1.5671-3.5 3.5c0 1.933 1.567 3.5001 3.5 3.5001z"/><path d="m32.0483 26.4c.9389 0 1.7-.7611 1.7-1.7s-.7611-1.7-1.7-1.7-1.7.7611-1.7 1.7.7611 1.7 1.7 1.7z"/><path d="m34.5483 21.5c.8285 0 1.5-.6716 1.5-1.5s-.6715-1.5-1.5-1.5c-.8284 0-1.5.6716-1.5 1.5s.6716 1.5 1.5 1.5z"/><path d="m48.4483 26.2c.8284 0 1.5-.6716 1.5-1.5 0-.8285-.6716-1.5-1.5-1.5s-1.5.6715-1.5 1.5c0 .8284.6716 1.5 1.5 1.5z"/><path d="m43.9483 27.2c.6075 0 1.1-.4925 1.1-1.1s-.4925-1.1-1.1-1.1-1.1.4925-1.1 1.1.4925 1.1 1.1 1.1z"/><path d="m38.3483 23.7c.6075 0 1.1-.4925 1.1-1.1s-.4925-1.1-1.1-1.1-1.1.4925-1.1 1.1.4925 1.1 1.1 1.1z"/><path d="m23.0483 25.5c.5523 0 1-.4477 1-1s-.4477-1-1-1-1 .4477-1 1 .4477 1 1 1z"/><path d="m19.3483 33.2c.4419 0 .8-.3582.8-.8s-.3581-.8-.8-.8c-.4418 0-.8.3582-.8.8s.3582.8.8.8z"/><path d="m26.4483 36.1c.5523 0 1-.4477 1-1s-.4477-1-1-1-1 .4477-1 1 .4477 1 1 1z"/><path d="m8.24832 35c.55229 0 1-.4477 1-1s-.44771-1-1-1c-.55228 0-1 .4477-1 1s.44772 1 1 1z"/><path d="m42.5483 44.9c.5523 0 1-.4477 1-1s-.4477-1-1-1-1 .4477-1 1 .4477 1 1 1z"/><path d="m48.3483 42.9c.6628 0 1.2-.5373 1.2-1.2s-.5372-1.2-1.2-1.2c-.6627 0-1.2.5373-1.2 1.2s.5373 1.2 1.2 1.2z"/><path d="m32.8483 38.4001c.718 0 1.3-.5821 1.3-1.3001 0-.7179-.582-1.3-1.3-1.3-.7179 0-1.3.5821-1.3 1.3 0 .718.5821 1.3001 1.3 1.3001z"/><path d="m21.2483 21.2001c.6628 0 1.2-.5373 1.2-1.2001 0-.6627-.5372-1.2-1.2-1.2-.6627 0-1.2.5373-1.2 1.2 0 .6628.5373 1.2001 1.2 1.2001z"/><path d="m13.6483 24.4c.6628 0 1.2-.5373 1.2-1.2s-.5372-1.2-1.2-1.2c-.6627 0-1.2.5373-1.2 1.2s.5373 1.2 1.2 1.2z"/><path d="m16.8483 31c.8837 0 1.6-.7163 1.6-1.5999 0-.8837-.7163-1.6001-1.6-1.6001-.8836 0-1.6.7164-1.6 1.6001 0 .8836.7164 1.5999 1.6 1.5999z"/><path d="m18.2483 25.1c.7732 0 1.4-.6268 1.4-1.3999 0-.7732-.6268-1.4001-1.4-1.4001s-1.4.6269-1.4 1.4001c0 .7731.6268 1.3999 1.4 1.3999z"/><path d="m28.0483 42c.8285 0 1.5-.6716 1.5-1.5s-.6715-1.5-1.5-1.5c-.8284 0-1.5.6716-1.5 1.5s.6716 1.5 1.5 1.5z"/><path d="m37.7483 38.9c.8284 0 1.5-.6715 1.5-1.5 0-.8284-.6716-1.5-1.5-1.5s-1.5.6716-1.5 1.5c0 .8285.6716 1.5 1.5 1.5z"/><path d="m28.8483 48.7c.7732 0 1.4-.6268 1.4-1.4s-.6268-1.4-1.4-1.4-1.4.6268-1.4 1.4.6268 1.4 1.4 1.4z"/><path d="m42.9483 39.9c.8284 0 1.5-.6715 1.5-1.5 0-.8284-.6716-1.5-1.5-1.5s-1.5.6716-1.5 1.5c0 .8285.6716 1.5 1.5 1.5z"/><path d="m46.2483 33.1c.8284 0 1.5-.6716 1.5-1.5 0-.8285-.6716-1.5-1.5-1.5s-1.5.6715-1.5 1.5c0 .8284.6716 1.5 1.5 1.5z"/><path d="m22.3483 39.4c.8837 0 1.6-.7164 1.6-1.6001 0-.8836-.7163-1.5999-1.6-1.5999-.8836 0-1.6.7163-1.6 1.5999 0 .8837.7164 1.6001 1.6 1.6001z"/><path d="m31.8483 33c1.0494 0 1.9-.8507 1.9-1.9001 0-1.0493-.8506-1.8999-1.9-1.8999-1.0493 0-1.9.8506-1.9 1.8999 0 1.0494.8507 1.9001 1.9 1.9001z"/><path d="m52.3483 31.7c1.0494 0 1.9-.8506 1.9-1.9 0-1.0493-.8506-1.9-1.9-1.9-1.0493 0-1.9.8507-1.9 1.9 0 1.0494.8507 1.9 1.9 1.9z"/><path d="m50.4483 39.5c1.3807 0 2.5-1.1193 2.5-2.5s-1.1193-2.5-2.5-2.5-2.5 1.1193-2.5 2.5 1.1193 2.5 2.5 2.5z"/></g></svg>
