<svg width="200" height="140" xmlns="http://www.w3.org/2000/svg">

 <g>
  <title>Layer 1</title>
  <path id="svg_1" d="m64,99.0162l14,0l0,-34l-20,-15l0,43c0,3.315 2.685,6 6,6z" fill="#4285f4"/>
  <path id="svg_2" d="m126,99.0162l14,0c3.315,0 6,-2.685 6,-6l0,-43l-20,15l0,34z" fill="#34a853"/>
  <path id="svg_3" d="m126,39.0162l0,26l20,-15l0,-8c0,-7.415 -8.465,-11.65 -14.4,-7.2l-5.6,4.2z" fill="#fbbc04"/>
  <path id="svg_4" d="m78,66.0162l0,-26l24,18l24,-18l0,26l-24,18l-24,-18z" fill="#ea4335"/>
  <path id="svg_5" d="m58,42.0162l0,8l20,15l0,-26l-5.6,-4.2c-5.935,-4.45 -14.4,-0.215 -14.4,7.2z" fill="#c5221f"/>
 </g>
</svg>