<svg width="200" height="120" xmlns="http://www.w3.org/2000/svg" version="1.0">

 <g>
  <title>Layer 1</title>
  <g stroke="null" id="layer1">
   <path stroke="null" fill="#008066" fill-rule="nonzero" id="path2489" d="m97.89736,62.03871l0,-2.61299l-7.72018,0c-3.79649,0 -5.56916,1.69222 -5.56916,4.30998c0,2.40014 1.70958,4.51965 6.07694,4.51965c5.37745,0 7.2124,-0.63775 7.2124,-6.21664zm-16.51394,-17.50942l-2.72393,3.574c-2.53446,-1.97973 -5.12834,-3.32197 -8.60937,-3.32197c-4.11338,0 -5.50485,1.83677 -5.50485,4.30998c0,1.55377 1.01232,3.1078 4.23874,3.39213l5.31639,0.42119c3.28036,0.24384 5.58607,1.46853 7.08459,3.33256c1.74968,-1.94292 4.35191,-3.17901 7.7902,-3.17901l8.92217,0l0,-3.64679c0,-3.39213 -1.96133,-4.59378 -6.58189,-4.59378c-3.3526,0 -5.54149,1.28584 -7.2301,3.31191l-2.70195,-3.60022zm48.01012,9.08114l14.92017,0c0,-6.21082 -3.55205,-9.29293 -7.48756,-9.29293c-3.93326,0 -7.43261,3.02679 -7.43261,9.29293zm-22.33384,2.73636c0.05902,5.85634 0.13066,6.7787 1.30192,8.41956c0.9124,1.28319 2.89063,2.78348 5.56408,2.78348c2.60609,0 4.29979,-1.5003 5.21523,-2.78348c1.1725,-1.64086 1.30417,-2.63921 1.30417,-8.41956c0,-5.84944 -0.13167,-6.85122 -1.30417,-8.48918c-0.91544,-1.28399 -2.60915,-2.78374 -5.21523,-2.78374c-2.67346,0 -4.65169,1.49975 -5.56408,2.78374c-1.17126,1.63796 -1.36298,2.59234 -1.30192,8.48918zm-4.06188,-12.89605c0.20657,-0.34601 0.43716,-0.69282 0.69217,-1.06532c1.45355,-2.04829 4.3051,-4.37775 8.47871,-4.37775c3.29278,0 5.8885,1.41213 8.29228,4.23797l0,-3.81544l6.45286,0l0,3.92505c2.5597,-3.12684 6.00022,-4.34757 9.21933,-4.34757c7.05873,0 13.13773,6.2913 13.17558,16.86346c0.00855,1.80871 -0.1559,5.04119 -0.1559,5.04119l-19.76765,0.01034c0,5.84177 3.0632,8.04706 7.48105,8.04706c2.45651,0 5.57771,-1.4619 7.47046,-3.63966l4.33053,4.0913c-3.1548,4.0815 -7.38946,6.30454 -11.67787,6.30454c-3.52763,0 -7.31986,-1.07432 -10.07554,-4.3444l0,3.01724c0,10.80911 -6.58148,15.75313 -13.91944,15.75313c-4.11439,0 -8.29209,-2.40357 -11.13936,-6.00457l4.99808,-4.44898c1.58442,1.76476 3.79853,3.24864 6.26562,3.24864c4.30429,0 7.34224,-2.75464 7.34224,-7.7712l0,-3.67301c-2.02483,2.47109 -4.9995,4.16674 -8.29228,4.16674c-3.6121,0 -6.23183,-1.74464 -7.81624,-3.54329l0,3.63383l-6.4551,0l0,-3.66109l-0.12374,0c-1.32981,2.47321 -3.54513,3.60285 -7.91189,3.60285c-4.08142,0 -7.19104,-1.54132 -9.11187,-4.01876c-2.4044,2.58203 -6.23447,3.97986 -10.63542,3.97986c-5.19001,0 -10.00086,-2.11979 -14.11443,-6.42712l4.49275,-4.94455c2.78418,3.03365 5.82112,4.59325 10.12683,4.59325c3.67254,0 6.32809,-1.5596 6.32809,-4.59325c0,-2.54522 -1.70755,-3.32144 -3.9239,-3.53376l-5.69554,-0.5647c-5.31538,-0.49401 -9.23928,-4.02696 -9.23928,-10.17106c0,-7.27747 5.18798,-11.02169 11.96118,-11.02169c4.89204,0 8.39811,1.43991 11.30929,3.76063c2.36145,-2.75277 5.46271,-3.72304 9.64041,-3.72304c5.56713,0 9.91129,1.46904 11.998,5.41314"/>
  </g>
 </g>
</svg>